<?xml version="1.0" encoding="utf-8"?>
<!-- Generator: Adobe Illustrator 21.0.0, SVG Export Plug-In . SVG Version: 6.00 Build 0)  -->
<svg version="1.1" id="Layer_1" xmlns="http://www.w3.org/2000/svg" xmlns:xlink="http://www.w3.org/1999/xlink" x="0px" y="0px"
	 viewBox="0 0 512 512" style="enable-background:new 0 0 512 512;" xml:space="preserve">
<style type="text/css">
	.st0{fill:#000B76;}
</style>
<title>Artboard 1</title>
<path class="st0" d="M256.7,215.1c0.1,0,0.2,0,0.2,0c1.7-1.6,3.1-3.5,3.9-5.7c0.3-0.5,0.1-1.2-0.5-1.5c0,0,0,0,0,0
	c-0.9,0.5-1.6,1.1-2.1,2c-0.9,1.3-2.1,2.3-3.6,2.9c-0.6,0.3-1.1,0.6-1.5,1.1c-0.5,0.4-0.9,0.8-1.7,1.4c0.3-2.1,0.9-4.2,1.8-6.1
	c0.7-1.9,2-3.6,3.7-4.7c0-0.5,0-1,0-1.5s-0.1-0.8-0.2-1.3c-1.1,0.7-1.9,1.6-2.8,2.1c-1.1,0.6-2.2,1.1-3.4,1.6c0.5-1,1.2-1.9,2-2.6
	c0.7-0.8,1.4-1.5,2.1-2.2s1.3-1.6,1.9-2.4c-1.3-0.6-1.6-0.6-2.7-0.2c-2,0.8-4.1,1.4-5.8,2.9c-0.4,0.3-0.9,0.6-1.4,0.8
	c0.8-1.7,2.2-2.6,2.5-4.4c-1.7,0.1-3.1,1.2-5,1.4l1.7-2.3c0.6-0.8,1.1-1.5,1.7-2.2c0.1-0.2,0.4-0.3,0.5-0.5c0.2-0.3,0.2-0.7,0.2-1.1
	c-0.1-0.4-0.5-0.5-0.9-0.5c-0.9,0.1-1.7,0.3-2.4,0.8c-1.5,0.8-3.1,1.5-4.7,2c-0.1-0.2-0.2-0.4-0.1-0.4c0.4-0.7,0.8-1.3,1.4-1.8
	c2.4-1.9,4.8-4,7-6.2c0.3-0.3,0.5-0.6,1.1-0.4c0.1,0.8,0.1,1.6,0,2.4c-0.1,1.6-0.2,3.1-0.2,4.7c0,1.3,0,1.3,1.2,2.5
	c1.2-1,2.4-1.9,2.5-3.6c0-0.5,0.1-1.1,0.4-1.6c1-2,1.8-4.2,2.2-6.4c0.1-0.4,0.3-0.8,0.7-1c0.2,1.8,0.4,3.5,0.5,5.3
	c0.1,1.2,0,2.5,0.1,3.7c0.1,0.9,0.2,1.8,0.5,2.8c0.5,2,1.1,3.9,1.6,5.9c0.7,3.2,2.1,6,3.1,9c1.4,3.5,2.6,7.2,3.4,10.9
	c0.4,2.2,1.1,4.4,2,6.5c1.2,2.9,2.2,5.8,3.3,8.7c0.2,0.4,0.4,0.8,0.7,1.2c0-1.3-0.2-2.5-0.5-3.8c-1.9-5.7-3.8-11.4-5.7-17.1
	c-0.4-1.2-0.7-2.4-1-3.6c-1.3-4.8-2.8-9.6-4.6-14.2c-1.1-2.9-1.8-6-2-9.1c-0.2-2-0.3-4-0.4-6.1c-0.2-2.2-0.1-4.5,0.4-6.7
	c-1-0.4-1.5-0.3-1.7,0.4c-0.1,0.4-0.2,0.8-0.2,1.1c-0.3,2.6-1,5.1-2,7.4c-0.6,1.6-1.2,3.2-1.8,4.8c-0.4,0.9-0.8,1.9-1.3,2.7
	c-0.3-0.3-0.4-0.4-0.4-0.5c-0.1-3.4-0.3-6.9,0.8-10.2c0.2-0.7,0.3-1.4,0.4-2.1c0.2-2.4,0.7-4.8,1.7-7c0.3-0.6,0.3-1.1-0.5-1.3
	c-0.8,0.8-1.5,1.8-1.9,2.8c-1.2,2-2.6,3.9-4.2,5.6c-0.3,0.3-0.6,0.5-1.1,0.9c0-0.4,0-0.8,0-1.2c0.3-2.4,1-4.7,2.1-6.9
	c0.9-1.9,1.7-3.8,2.5-5.8c0.5-0.9,0.6-1.9,0.5-2.9c-0.4,0.2-0.8,0.5-1.1,0.8c-1.5,1.5-3,2.9-4.5,4.4c-1.9,2-4,3.9-6.2,5.5
	c0.1-0.4,0.2-0.9,0.4-1.3c0.6-1.3,1.2-2.7,2-4c1.3-2.3,2.8-4.5,4.2-6.8c0.5-0.9,1.2-1.7,0.7-2.9c-0.3,0.1-0.6,0.3-0.9,0.5
	c-0.3,0.4-0.5,0.8-0.7,1.2c-1.5,2.9-3.3,5.7-5.2,8.3c-1.2,1.6-2.3,3.2-3.4,4.8c-0.6,0.9-1.4,1.6-2.4,2.2c-0.5-0.4-0.2-0.7-0.1-1
	c0.9-2.4,2-4.7,3.4-6.9c1.4-2.2,2.7-4.4,4-6.6c0.2-0.3,0.3-0.7,0.4-1l-0.1,0.1c0.3-0.1,0.5-0.2,0.8-0.4c1.2-1.1,2.3-2.3,3.5-3.4
	c0.7-0.7,1.2-1.6,1.3-2.6l-2-1.4c-0.8,0.4-1.5,1-2,1.8c-0.6,0.7-1.2,1.4-1.9,2.1c-2.6,2.5-5.4,4.7-7.8,7.4c-0.3,0.3-0.7,0.6-1.1,0.9
	c-1.2,1-2.4,1.9-3.7,2.9s-2.4,1.7-4,2.7c0-0.5,0.1-0.9,0.3-1.4c0.4-0.7,0.9-1.5,1.4-2.1c1.3-1.6,2.7-3.2,4.1-4.8
	c1.6-1.8,3.2-3.6,4.8-5.4c0.6-0.6,1.2-1.3,1.7-1.9c0.1-0.2,0.2-0.5,0.3-0.7c-0.5-0.5-0.9-0.2-1.1,0c-1.7,1-3.4,2-5,3.1
	c-3.5,2.4-6.9,4.8-10.4,7.1c-0.2,0.1-0.4,0.2-0.6,0.2c-0.3-0.4,0-0.6,0.1-0.8c1.6-3,4.2-5.2,6.4-7.7c1.4-1.6,3-3,4.7-4.2
	c1.5-1,2.9-2.1,4.1-3.4c-0.1-1-0.8-1.2-1.4-1.5c-2.4-1-4.7-2.1-7.1-3.1c-2.7-1.2-5.5-2.1-8.3-3.1c-2.3-0.9-4.6-2-6.8-3.1
	c-1-0.5-2-1-3-1.4c-3-1.1-5.7-2.9-7.9-5.2c-1.3-1.4-2.7-2.8-4.1-4.2c-0.4-0.5-0.7-1-1.1-1.5c1.4,0,2.6,0,3.7-0.1
	c2.3-0.1,4.7,0.3,6.9,1.1c3.7,1.4,7.5,2.5,11.3,3.7c1.7,0.4,3.2,1.1,4.7,2c2.4,1.5,5,2.7,7.7,3.3c0.8,0.2,1.6,0.5,2.5,0.8
	c0.2,0.5,0.4,1,0.6,1.5c0.7,2,1.9,3.7,3.6,5c1,0.8,2,1.7,3.2,2.6c-1.6,0.4-2.6-1-4-0.6c1.4,3.3,4.3,5.7,7.7,6.6
	c2.2,0.5,4.4,1,6.7,1.2c0.8,0,1.6,0.2,2.3,0.7c-0.2,0.3-0.3,0.6-0.5,0.9c-1.3,1.9-2.6,3.7-3.8,5.6c-0.4,0.7-1.5,1.6-0.5,2.4
	c0.8,0.7,1.6-0.2,2.3-0.7c1-0.6,1.9-1.4,2.8-2.1l1.3-0.9c-0.6,1.3-0.9,2.2-1.3,3.1c-0.4,0.9-0.5,2-0.2,2.9c1.3,0.8,1.4-0.9,2.4-1.1
	c0,2.1-0.3,4.2,0.5,6.2c0.3,0.3,0.8,0.2,1.1-0.1c0.1-0.1,0.1-0.2,0.2-0.4c0.5-1.4,1-2.7,1.7-4.5c0.2,0.9,0.3,1.3,0.4,1.7
	c0.1,1.2,0.3,2.5,0.4,3.7c0.2,2.2,0.7,4.3,1.4,6.4c0.6,1.8,1.2,3.6,1.7,5.4c0.4,1.5,0.6,3.1,0.8,4.6c0.4,3.3,0.6,6.7,1.1,10
	c0.3,2.6,0.9,5.1,1.4,7.6c0.5,2.8,1,5.7,1.7,8.5c0.8,3.5,1.7,7,2.6,10.4s2,7,3,10.6c0.3,1.2,0.5,2.4,0.6,3.7c0,1.1,0.5,2.1,1.2,2.9
	c0.4,0.5,0.9,1,1.5,1.7c0-0.9-0.4-1.7-0.9-2.4c-0.4-0.8-0.5-1.7-0.2-2.5c0.3-0.9,0.5-2,1.8-2.4c0.1,0.2,0.3,0.5,0.3,0.8
	c0.4,1.7,0.9,3.5,1.3,5.2c0.7,3,2.5,5.4,4.4,7.6c0.4,0.4,0.8,0.7,1.3,0.9c1.9,1,3.8,1.7,5.9,2.3c2.8,0.8,5.5,1.9,8,3.3
	c1.8,0.8,3.4,2.2,4.3,4c-3.9-0.2-7.6-1.8-10.4-4.6c-0.5,0.6-0.5,1-0.2,1.3c0.4,0.7,0.8,1.3,1.3,1.9c1,1.2,1.3,2.7,0.9,4.2
	c-0.3,1.3-0.4,2.6-0.6,3.9c-0.1,0.4,0,0.8,0.3,1.1c1-1.1,1-1.3,1.4-4.3c0.4-1.5,0.2-3.1-0.6-4.5c0.3-0.5,0.6-0.1,0.8,0
	c3.5,2,7.6,2.6,11.5,1.7c3.4-0.9,6.9-1.5,10.5-1.8c3-0.1,6.1,0,9.1,0.1c1.6,0.1,3.1-0.1,4.6-0.5c0.8-0.3,1.6-0.6,2.5-0.8
	c2.7-0.7,5-2.4,6.4-4.7c0.6-0.8,1.1-1.7,1.7-2.5c1.7-2.5,3.7-4.8,6-6.8c2.6-2.3,5.7-3.9,9-4.9c6.2-1.8,12.2-0.8,18.1,1.5
	c2,0.8,3.9,2,5.4,3.6c2.5,2.4,4.7,5,6.6,7.8c1.5,2.1,2.3,4.7,2.3,7.2c0,0.1,0,0.2,0,0.2c-0.2,4.7-0.7,9.3-1.5,14
	c-0.4,2.2-1.4,4.1-2.9,5.7c-1.3,1.4-2.4,2.9-3.9,4.2c-1.3-0.8-2.4-1.7-3.4-2.9c-0.9-1.1-1.7-2.2-2.5-3.4c-1.1-1.5-2-1.7-3.6-0.8
	c-5,2.8-10,5.5-14.9,8.4c-3.1,1.9-6.4,3.5-9.7,5.2c-0.7,0.3-1.4,0.7-2.1,1c-1.1-0.6-1.5-1.9-1-3c0.2-0.5,0.4-1,0.5-1.5
	c-0.9-0.5-1.3-0.5-1.5,0.1c-0.4,1.2-1.1,2.4-0.5,3.8c-1,0-1.9,0-2.7,0c-1.9,0-3.7,0.1-5.6,0.2c-1.2,0.1-2.3,0.6-3.1,1.5
	c-1.1,1-2,2.2-2.7,3.5c-0.1,0.4-0.1,0.9-0.1,1.3c0.3-0.2,0.7-0.4,0.9-0.7c0.5-0.7,1-1.4,1.5-2.1c1.3-1.8,2.9-2.8,5.3-2.3
	c-0.2,0.3-0.3,0.6-0.5,0.7c-1,0.7-1.9,1.6-2.5,2.7c-2.4,3.5-4.9,7.1-7.3,10.6c-0.1,0.1-0.2,0.1-0.4,0.2c-0.5-0.2-0.2-0.7-0.3-1
	c0-0.3,0-0.6,0-0.9c0.1-1.8-0.2-3.6-0.8-5.3c-0.9-3.1-3-5.4-4.9-7.9c-0.6-0.6-1.2-1.1-1.8-1.5c-2.1-1.6-3-4.3-2.4-6.8
	c0.3-1.6,1-3.1,2.1-4.4c0.4-0.5,0.8-1.1,1.2-1.7c-0.8-1-1.1-1-1.7-0.4c-1.9,2.4-3.4,5-3.2,8.3c0,0.2-0.1,0.3-0.2,0.5
	c-0.8,0-0.9-1-1.6-1.1c-0.1,0.1-0.3,0.2-0.3,0.2c0,0.5,0,0.9,0.2,1.3c0.2,0.4,0.5,0.8,0.9,1c1.8,1.4,3.4,3,4.8,4.7
	c1.1,1.2,2.2,2.4,3.4,3.5c0.7,0.7,1.2,1.4,1.6,2.3c1.3,2.5,1.9,5.3,1.7,8.1c-0.3,3.9-0.5,7.8-0.8,11.7c-0.1,1.2-0.2,2.5-0.2,3.5
	c0.1,0.1,0.2,0.3,0.3,0.4c2.9,2.8,5,6.2,7.6,9.2c1.5,1.8,2.4,4,2.6,6.4c0.4,3.4-0.3,6.7-0.8,10c-0.6,4.1-1.4,8.1-2.1,12.2
	c0,0.4,0,0.8,0,1.1c0.8,0.2,0.8-0.4,0.9-0.8c0.7-3.5,1.3-7.1,1.9-10.6c0.3-1.6,0.7-3.2,1.1-4.8c0.3-1.2,1-2.3,2.1-3
	c1-0.7,1.9-1.7,3-2.2c1.1-0.5,2.3-0.9,3.5-1.2c2-0.7,3.9-1.5,6-2.1c3.6-1.2,7.1-2.7,10.4-4.6c1.5-1,2.8-2.2,4-3.5
	c0.4-0.4,0.7-0.8,1-1.2c1.1,0.1,2,0.3,3,0.3c0.9,0.1,1.9,0,2.7-0.5c0-0.5-0.2-0.6-0.5-0.6c-1.1,0-2.2,0.1-3.3,0.2
	c-1,0.1-2-0.4-2.6-1.3c-0.6-0.8-1.3-1.6-1.8-2.4c-2-2.9-4.5-5.6-7.3-7.7c-0.2-0.6,0.4-0.6,0.5-0.9c0.1-0.3,0.2-0.6,0.1-0.9
	c-0.3-1.1-1.3-1.8-2.4-1.8c-1.5,0-1.8,0.1-2.9,1.4c-0.7-0.3-0.7-0.8-0.4-1.3c0.3-0.5,0.9-0.9,1.5-1c1.3-0.3,2.6-0.3,4,0l-0.1-0.1
	c1.4,0.8,2.7,1.7,4.1,2.5c0.6,0.4,1.3,0.6,1.9,0.7c1.8,0.2,3.7,0.2,5.5,0.3c0.7,0.3,1.5,0.5,2.3,0.7c0.2-0.5,0-0.8-0.3-0.8
	c-0.7,0-1.3,0.1-2,0.1c-1.2-1-2.1-2.3-2.8-3.7l1.5-2.2c-0.4-0.5-0.8-0.4-1-0.1c-0.5,0.5-1,1.1-1.6,1.8c-0.5-0.2-1-0.4-1.5-0.7
	c-1-0.7-2.2-0.9-3.3-0.8c-2.2,0.1-4.3,0.5-6.4,1.2c-2.2,0.7-4.5,1.2-6.8,1.8c-0.8,0.3-1.8,0.3-2.6,0c0-0.4,0-0.7,0.1-1.1
	c0.3-0.5,0.6-0.9,1-1.2c2.2-1.7,4.8-3,7.4-3.9c1.3-0.4,2.7-0.8,4-1.4c1.8-0.7,3.7-1.2,5.6-1.5c0.2,0,0.3,0,0.5,0
	c3.2-1.2,6.5-0.7,9.7-0.5c1,0,1.8,0.5,2.3,1.3c1,1.7,2.1,3.5,3.1,5.2c1.8,3.3,3.3,6.7,4.5,10.3c0.4,1.2,0.6,2.4,0.6,3.7
	c0.1,1.5-0.5,2.9-1.5,4c-0.2,0.2-0.4,0.5-0.6,0.8c0.1,0.6,0.1,1.2,0.3,1.8c0.5,1.6,0,3.4-1.2,4.5c-1.8,2-3.5,4.2-5.5,6
	c-5.4,5-11,9.9-16.5,14.9c-3,2.8-6.1,5.5-9.4,8c-1.7,1.4-3.5,2.6-5.3,3.8c-3.9,2.2-7.3,5.1-10.1,8.5c-0.2,0.2-0.4,0.3-0.6,0.5
	c-0.3-0.2-0.6-0.4-0.9-0.7c-2-1.8-4.4-3-7-3.6c-1.7-0.4-3.5-1-5.2-1.4c-1-0.2-1.9-0.8-2.4-1.7c-1.6-2.7-3.5-5.2-4.5-8.2
	c-0.4-0.9-0.8-1.7-1.4-2.4c-3.1-4.9-6.3-9.9-9.4-14.8c-0.9-1.4-1.7-2.8-2.5-4.2c-0.6-1.2-1.2-2.5-1.6-3.9c-0.9-2.7-1.6-5.4-2.4-8.1
	c-0.8-2.8-1.4-5.8-1.5-8.7c0-2.2-0.9-4.3-2.5-5.8c-1.2-1.3-2.3-2.7-3.4-4.2c-1.5-1.9-2.3-4.3-2.3-6.7c0-1.7-0.3-3.4-0.4-5.1
	c0-0.2-0.1-0.4-0.2-0.6c-0.3-0.2-0.7-0.1-0.9,0.2c-0.1,0.1-0.1,0.2-0.1,0.3c-0.1,0.5-0.1,0.9,0,1.4c0.2,2.4,0.4,4.8,0.5,7.3
	c-1.2-0.5-2.2-1.2-3-2.2c-0.8-0.8-1.5-1.8-2.2-2.7c-1.4-1.7-2.1-3.9-2-6.1c0-0.9-0.1-1.7-0.1-2.6c0-0.1-0.1-0.3-0.3-0.5
	c-0.2,0.1-0.6,0.3-0.6,0.5c-0.2,0.7-0.3,1.4-0.3,2.1c0,3.9,1.7,7.6,4.7,10c1.6,1.3,3.2,2.5,4.8,3.8c0.5,0.4,0.9,0.8,1.3,1.3
	c1.4,2.4,3,4.5,4.9,6.5c0.5,0.4,0.7,1,0.8,1.6c0.4,4.1,1.1,8.2,2.2,12.2c0.8,3.8,2,7.5,3.7,10.9c0.2,0.4,0.4,0.9,0.5,1.3
	c0,0.2,0,0.3,0,0.5c-0.1,0.1-0.1,0.3-0.2,0.4c-2.5,1.4-4.9,3.1-7.6,4.1c-0.8,0.3-1.5,0.8-2,1.5c-1.1,1.5-2.3,2.9-3.5,4.4
	c-0.4,0.4-0.7,0.8-1,1.3c-1.4,3.1-4,5.6-4.8,9c-2.6-0.4-5.2-0.8-7.7-1.2c-2.2-0.4-4.5-0.6-6.7-0.6c-1.3,0-2.7,0-4-0.2
	c-4-0.3-8,0.6-11.5,2.5c-4,2-7.9,4-11.9,6c-0.7,0.4-1.4,0.8-2,1.3c-0.2,0.1-0.2,0.5-0.3,1.1c1.4-0.6,2.6-1,3.7-1.5c2-1,4.1-2,6-3.1
	c2.6-1.5,5.3-2.8,8-3.9c2.1-1,4.5-1.3,6.8-1c2.4,0.3,4.8,0.5,7.2,0.5c4.6,0.2,9.2,0.9,13.6,1.9c8,1.6,16,3.4,24,5.1
	c4.6,1,9.3,2,13.9,3c3.6,0.7,7.1,2,10.2,3.9c3.4,2.2,5.8,5.8,6.6,9.8c0.4,2.8,0.3,5.6-0.2,8.4c-0.1,0.6-0.3,1.2-0.6,1.7
	c-1.1,1.8-2.2,3.6-3.4,5.3c-3.3,4.5-6.7,9-10,13.5c-0.8,1.1-1.5,2.2-2.2,3.3c-3.4,5.4-7.2,10.6-10.9,15.8
	c-3.9,5.2-7.5,10.8-10.7,16.5c-1.7,3.2-3.2,6.4-4.8,9.6c-1.3,2.7-2.7,5.5-4,8.2c-0.8,1.8-1.6,3.7-2.3,5.6c-0.2,0.6-0.3,1.2-0.3,1.8
	c0,0.9,0.1,1.7,0,2.6c-0.1,1.8,0.5,3.6,1.9,4.9c1.2,1.3,2.4,2.5,3.5,3.7c4.5,4.7,9,9.3,13.4,14c0.7,0.8,1.5,1.3,2.5,1.6
	c1.8,0.6,3.3,1.9,4,3.7c1,2,0,3.4-2.1,3.4c-0.2,0-0.5,0-0.8-0.1c-1.7,2.6-4.5,3.4-7.4,3.7c-1,0-2,0.2-2.9,0.7
	c-0.2,0.1-0.4,0.2-0.6,0.3c-0.5,0.2-1.1-0.1-1.4-0.6c-0.2-0.5-0.4-1-0.6-1.5c-0.2-0.6-0.4-1.2-0.6-1.8c-0.3-1.5-1.2-2.8-2.4-3.5
	c-1.5-1-2.8-2.2-4.2-3.3c-1-0.8-2-1.5-3.1-2.1c-2.7-1.6-5.4-3.1-8.1-4.6c-0.7-0.4-1.6-0.7-2.4-0.7c-1.1-0.1-2.2-0.3-3.2-0.5
	c-0.9-0.2-1.7-0.7-2.7,0c-0.3,0.2-0.9,0-1.3-0.2c-1.5-0.6-2.9-1.4-4.2-2.5c-1.5-1.3-2.8-2.7-3.8-4.4c-0.3-0.6-0.6-1.2-0.9-1.9
	c-0.3-0.7-0.2-1.5,0.3-2c1.6-2.3,3.2-4.6,4.8-6.9c3.4-4.9,6.7-9.8,10.1-14.6c0.4-0.6,0.8-1.3,1-2.1c1.6-6,3.1-12.1,4.8-18.1
	c1.4-4.9,2-9.9,1.8-15c0-0.7-0.1-1.4-0.1-2.1c-0.1-2.4-0.2-4.8-1.5-7l7.2-14.4c-0.4-0.3-0.8-0.5-1.2-0.6c-1.2-0.2-2.5-0.3-3.7-0.3
	c-6.1,0-12.1-0.8-18.2-1.3c-5.6-0.6-11.2-0.8-16.8-0.6c-0.6,0-1.3,0-1.9,0.1c-3.9,0.4-7.6-0.7-11.1-2.3c-1.2-0.5-2.5-0.9-3.8-1.1
	c-1.3-0.2-2.6-0.6-3.8-1.2c-2.1-1.1-4.4-2.1-6.4-3.4c-1.4-1-2.7-2-4-3.2c-2.8-2.4-4-5.7-5-9c-0.6-2.1-1.3-4.2-1.8-6.3
	s-0.7-4.5-1.1-6.7c-0.1-0.5-0.1-1.1-0.2-1.6c-0.4-2.3-0.2-4.7,0.5-6.9c0.6-2.5,1.3-5,2.1-7.4c0.8-2.1,1.8-4.1,2.8-6.2
	c1-2.2,2.3-4.3,3.6-6.3c1.1-1.7,2.1-3.4,3.3-5.1c0.8-1.2,1.8-2.3,2.8-3.5c3.6-4.6,7.3-9.1,10.9-13.7c6.7-8.4,13.4-16.8,20.7-24.8
	c1.7-1.9,3.8-3.5,5.7-5.2c1.7-1.6,3.5-3.1,5.3-4.6c2.5-2.1,5.1-4.1,7.8-6c0.5-0.4,1-0.7,1.5-1.1c1.1-0.8,1.3-2.4,0.5-3.5
	c-0.2-0.3-0.5-0.5-0.8-0.7c-0.7-0.6-1.8-0.6-2.6,0c-0.7,0.4-1.5,0.8-2.3,1.1c0.2-0.4,0.4-0.8,0.6-1.1c0.7-0.8,1.3-1.7,1.9-2.7
	c0.7-1.3,0.4-1.8-1.1-2.9c-1.9,2.4-4,4.5-6.3,6.4c-0.5-0.7-0.6-1.7-0.1-2.5c0.4-0.7,0.8-1.4,1.3-2c0.9-1.3,1.7-2.6,1.4-4.3
	c-0.1-0.2-0.1-0.5-0.2-0.7c-0.9-0.1-1.7,0.2-2.2,0.9c-0.6,0.7-1.1,1.5-1.6,2.3c-0.7,1-1.4,2.1-2.2,3.3c0,2-0.4,4-1.1,5.9
	c-0.5,1-1.1,2-1.7,3c-0.1,0.1-0.3,0.2-0.4,0.1c-0.2-0.1-0.5-0.3-0.5-0.4c-0.1-1.9,0-3.9,0.5-5.8c0.6-2.6,1.1-5.2,1.3-7.8
	c0-0.4,0-0.7,0-1.5c-0.3,0.3-0.6,0.6-0.8,1c-0.7,1.4-1.4,2.8-2,4.2c-0.8,1.6-1.5,3.3-2.3,4.9c-0.8,1.5-2,2.7-3.3,3.7
	c0-0.9,0.2-1.8,0.6-2.6c1.5-4,2.7-8.1,3.6-12.3c0.2-0.8,0.3-1.5,0.3-2.3c0-0.3-0.1-0.6-0.3-0.9c-0.1-0.1-0.3-0.1-0.5-0.3
	c-0.3,0.6-0.6,1.1-0.8,1.6c-0.7,1.7-1.4,3.5-2.1,5.2c-0.6,1.3-1.1,2.6-1.3,4c-0.1,0.8-0.5,1.6-1.1,2.2c-0.5-2.1-0.6-4.3-0.4-6.5
	c0.3-2.4,1.1-4.7,2.4-6.8c1.5-2.5,2.9-5,4.4-7.5c0.2-0.3,0.3-0.7,0.3-1.1c0-0.1-0.3-0.3-0.5-0.4c-0.2,0-0.4,0.1-0.6,0.3
	c-0.8,0.9-1.5,1.8-2.2,2.7c-1,1.4-2,2.8-3,4.2c-0.6,1-1.2,2-1.8,3c-0.9,1.6-1.9,3.1-3,4.5c-0.4-1.6,0-3.2,1.7-9.1
	c0.9-3,2-5.8,3.3-8.6c-1.9,1.2-3.6,2.7-5.1,4.3c-1.6,1.6-3.1,3.2-5,5.2c0-0.4,0-0.8,0.1-1.2c0.7-1.6,1.6-3.1,2.7-4.4
	c1.9-2.4,3.8-4.8,5.7-7.1c0.9-1.1,1-1.4,0.1-2.4c-0.6-0.7-0.3-1.6-0.8-2.5c-1.2,0.8-2.2,1.7-3.1,2.8c-0.8,1.1-1.6,2.3-2.4,3.5
	c-1,1.5-2,2.9-3.1,4.4c-0.2,0.2-0.4,0.5-0.6,0.7c-0.5-0.4-0.2-0.7-0.1-1c0.4-2.5,0.9-5.1,1.3-7.6c0.2-1.2,0.6-2.3,1.1-3.3
	c0.9-1.9,2-3.7,2.9-5.6c0.5-0.8,0.9-1.6,1.1-2.5c-0.4-0.4-0.8-0.4-1,0c-0.8,1-1.5,2-2.2,3c-0.9,1.4-5.9,7.3-7,8.4
	c-0.6-1.1-0.7-1.4-0.2-2.2c1.2-2.2,2.2-4.5,2.9-6.9c0.8-1.8,1.7-3.5,2.7-5.2c0.4-0.8,0.8-1.7,1.3-2.5c0.3-0.6,0.3-1.4-0.1-2
	l-0.1,0.1c0.6,0.2,1.3,0.1,1.8-0.2c1-0.6,2-1.2,2.9-1.8s1.9-1.4,2.9-2.1l0.4,0.9l0.1-0.1c-0.1,0-0.2,0-0.2,0
	c-2.5,2.3-3.4,5.3-3.5,8.6c0,0.9,0.8,1.3,1.6,0.8c1-0.7,2-1.4,3.1-2.1c0.8-0.6,1.6-1.1,2.6-1.4c-0.2,1-0.9,1.2-1.4,1.7
	c-0.6,0.4-1,1.1-1.2,1.8c0.8,0.8,1,0.9,1.5,0.7c0.9-0.3,1.7-0.7,2.4-1.4c0.2-0.2,0.4-0.7,1-0.2c-0.6,0.6-1.1,1.3-1.7,1.9
	c-2.3,2.4-3.8,5.4-4.2,8.7c-0.2,0.6-0.1,1.2,0.2,1.7c0.7,0.1,1.4-0.2,1.9-0.7c1-0.7,1.9-1.6,2.4-2.7l0.3-0.2l0.9,0.1
	c0,0.8-0.7,1.2-1.1,1.7c-1.4,1.8-2.4,3.9-2.8,6.1c0,0.3,0.1,0.6,0.3,0.8c0.3,0.1,0.6,0.1,0.9,0c0.3-0.1,0.5-0.3,0.8-0.5
	c2.2-1.4,4.1-3.1,5.9-5c1.1-1.1,2.1-2.3,2.7-3.8c0.3-0.8,0.9-1.5,1.5-2c0.9-0.6,1.7-1.3,2.3-2.1c0.4,0,0.8,0,1.1,0.1
	c0.3,0.1,0.5,0.4,0.7,0.6c1.1-1.7,1.1-1.7,0.3-2.7c-0.7,0.7-1.7,1-2.1,2l-2.6,1c0.6-2,0.8-2.3,2.3-3.3c1-0.7,1.8-1.8,2-3
	c0.1-0.5,0-0.9-0.8-1.1c-1.2,0.7-2.5,1.5-3.9,2.3c-0.3,0.2-0.7,0.5-1.1-0.1c0.2-0.5,0.5-1,0.8-1.5c0.9-1.5,1.9-3,2.9-4.5
	c0.3-0.5,0.6-1.1,0.8-1.7c0.1-0.2-0.2-0.5-0.5-1c-1.2,2.8-3.4,3.7-5.9,4.5c-0.1-1,0-1.9,0.2-2.9
	C256.6,216.2,256.7,215.6,256.7,215.1L256.7,215.1z M267.1,233.3c-0.9,0.1-1.8,0.5-2.4,1.2c-0.8,0.7-1.6,1.5-2.4,2.2
	c-0.5,0.6-1.4,0.9-2.2,0.8c0.1-0.6,0.1-1.2,0.3-1.8c0.1-0.5,0.3-1.1,0.5-1.6c0.2-0.6,0.4-1.2,0.6-1.8s0.9-0.9,0.8-1.8
	c-1.7,1.7-2.8,3.9-3.1,6.3c-0.1,0.9-0.2,1.7-0.3,2.5c0,0.3-0.1,0.6,0.4,0.8c1.1-0.7,2.1-1.5,3-2.4c1.3-1.2,2.7-2.3,4-3.5
	C266.5,234,266.8,233.7,267.1,233.3c1,0,1.2,0.2,0.8,0.9c-0.2,0.4-0.8,0.7-0.4,1.5c0.5-0.8,0.9-1.3,1.2-1.9c0.3-0.4,0.3-0.9-0.1-1.3
	c-0.6-0.5-1,0.1-1.4,0.4C267.1,233,267.1,233.2,267.1,233.3L267.1,233.3z M263.4,239.9c-1.4,0.6-1.7,1.9-2.3,3
	c-0.3,0.6-0.6,1.3,0,1.9s1.2,0.3,2.1-0.4c1.1-0.9,2.2-1.7,3.3-2.5c0.2-0.3,0.6-0.3,0.9,0c0.1,0.1,0.1,0.1,0.2,0.2
	c-0.6,0.9-1.2,1.9-1.8,2.9c-0.9,1.3-1.5,2.8-1.7,4.3c-0.3,1,0.1,2.1,1,2.6c1-0.2,1.9-0.8,2.5-1.6c1.1-1.3,2.3-2.6,3.4-3.8
	c0.3-0.3,0.6-0.5,1-0.8c0,0.7-0.2,1.4-0.5,2c-0.7,1.4-1.4,2.8-2,4.2c-0.2,0.5-0.4,1-0.5,1.6c0,0.3,0.1,0.7,0.3,0.8
	c0.3,0.2,0.7,0.2,1.1,0c0.4-0.4,0.7-0.8,1-1.3c0.3-0.5,0.4-1.2,1.1-1.4l0,0c0.1,1.5-0.1,3-0.5,4.4c-0.1,0.6-0.2,1.2-0.3,1.8
	c-0.1,0.4,0.1,0.8,0.5,1c0.1,0,0.1,0,0.2,0c0.9-0.5,1.5-1.3,2-2.2c0.3-0.6,0.6-1.2,1-1.8c0.7-0.8,1-1.8,0.9-2.8
	c0-0.8-0.1-1.6,0.5-2.1c1,0.8,2,1.5,3,2.3c1.4,1.1,2.9,2.1,4.3,3.2c0.9,0.6,1.6,1.5,2,2.6c0.3,0.7,0.7,1.4,1.2,2
	c0.6,0.7,0.9,1.6,0.9,2.6c0,2.6,0.2,5.3,0.3,7.9c0,0.2,0.2,0.3,0.3,0.5c0.5-0.4,0.7-0.9,0.6-1.5c0-2.1,0-4.2,0-6.3
	c0-1.3-0.5-2.5-1.2-3.5c-0.5-0.7-1-1.4-1.3-2.2c-0.5-1.2-1.3-2.3-2.4-3.1c-0.9-0.8-1.9-1.5-3-2.1c-1.7-1-3.2-2.3-4.2-4
	c-0.3-0.3-0.6-0.6-0.9-0.9c-0.4,2-0.7,3.8-1,5.6c-0.1,1.4-1,2.6-2.3,3.2c-0.1-0.2-0.1-0.5-0.1-0.7c0.4-2.1,0.9-4.1,1.4-6.1
	c0.1-0.5,0.3-1,0.4-1.6c0-0.4,0-0.8-0.6-0.8c-1.2,1.3-1.5,3.1-3,4.5c0.3-2.5,1.8-4.3,2.4-6.7c-0.4,0-0.8,0-1.3,0.1
	c-0.5,0.2-0.9,0.5-1.3,0.9c-1.4,1.4-2.8,2.9-4.2,4.4c-0.4,0.4-0.7,0.7-1.2,1.2c-0.2-0.4-0.4-0.6-0.4-0.7c0.5-2.4,0.8-4.8,2.3-6.7
	c1-1.3,1.9-2.7,2.8-4c0.2-0.3,0.4-0.7,0-1c-0.1,0-0.3,0-0.4,0c-0.5,0.3-0.9,0.6-1.3,0.9c-0.5,0.5-1.1,0.9-1.7,1.3
	c-1.3,0.7-2.6,1.5-3.7,2.4c-0.3,0.2-0.6,0.5-1,0l1.3-3.4c0.5-0.4,0.5-0.4,0.4-0.9L263.4,239.9z M298.3,269.1c-0.3-0.6-0.6-0.7-1-0.5
	c-0.5,0.4-1,0.8-1.4,1.2c-2.8,3-5,6.6-6.4,10.5c-1.4,4.3-1.6,8.9-0.4,13.3c0.1,0.5,0.3,1.1,1.1,1.1c0.1-0.2,0.3-0.5,0.3-0.8
	c0-0.5,0-1.1-0.1-1.6c-0.6-3.1-0.6-6.4,0-9.5c0.4-3,1.6-5.9,3.4-8.3C295.3,272.8,296.8,271,298.3,269.1L298.3,269.1z M353.3,261.5
	c-0.9,0.8-1.9,1.5-2.8,2.4c-2.4,2-4.6,4.2-6.5,6.7c-0.5,0.7-1,1.4-1.3,2.2c-0.6,1.7,0.2,3.5,1.7,4.4c0.6,0.3,1.2,0.2,1.4-0.3
	s-0.1-0.9-0.5-1.1c-1.3-0.7-1.2-1.9-0.8-3c0.3-0.8,0.8-1.5,1.3-2.2c0.8-1,1.6-1.9,2.5-2.8c1.3-1.3,2.6-2.4,3.9-3.6
	c0.3-0.2,0.6-0.4,1-0.5c1.3,1.5,0.6,3.3,1.2,4.7c0.7,0.2,1-0.1,1-0.6c0-1.2,0-2.5-0.1-3.7C355.2,262.8,354.4,261.8,353.3,261.5
	L353.3,261.5z M303,273.7c0.2-0.6,0.4-1.3,0.6-1.9c0.9-2.7,2.3-5.3,4.1-7.5c1-1.3,2.5-2.2,4.1-2.5c1-0.2,2-0.2,3-0.3
	c0.4,0,0.8-0.1,0.8-0.6c-0.1-0.1-0.2-0.3-0.3-0.3c-3.5-0.4-6.6,0.3-8.9,3.4c-1.5,2.2-2.8,4.5-3.9,6.9c-0.3,0.6-0.4,1.3-0.5,2
	C302,273.3,302.2,273.7,303,273.7z M280,258.8l-0.5,0.1c0.1,0.7,0.3,1.3,0.5,2c0.4,1.6,0.7,3.2,0.8,4.8c0.1,1.2-0.2,2.5-0.9,3.6
	c-0.9,1.3-1.7,2.6-2.6,3.9c-1.2,1.7-2.3,3.5-3.1,5.5c-0.2,0.4-0.1,0.4,0.2,1.5c0.3-0.7,0.6-1.2,0.8-1.8c0.7-1.9,1.8-3.6,3.1-5.2
	c1.1-1.4,2-2.9,2.8-4.5c0.6-1,0.8-2.2,0.6-3.4C281.5,263,280.9,260.9,280,258.8L280,258.8z"/>
<path class="st0" d="M184.9,491c0.5-0.9,1.4-1.4,2.5-1.5c1.2-0.3,2.4-0.6,3.7-0.8c2.9-0.5,5.7-1.6,8.2-3.2c2.8-1.6,5.7-3,8.1-5
	c0.7-0.6,1.6-1,2.5-1.3c0.7-0.2,1.2-0.8,1.3-1.5c0.2-1,0.2-2,0-3c-0.5-2.4-1.2-4.8-1.9-7.2c-0.2-0.8-0.5-1.5-1-2.1
	c-1.3-1.8-2.3-3.7-3-5.8c-1.1-2.8-2-5.6-3-8.4c-0.5-1.6-1.1-3.3-2.5-4.4c-0.5-0.4-1-1.1-0.6-1.6c0.6-1-0.1-2,0.1-2.9
	c0.1-0.9,0.1-1.9-0.1-2.8c0-0.9-0.4-1.7-0.9-2.4c-1.4-1.6-1.9-3.7-2.9-5.5c-0.2-0.4-0.3-0.9-0.3-1.4c0-0.8,0-1.6,0-2.4
	c-0.4-0.5-0.8-1-1.2-1.4c-1.4-1.5-1.7-3.6-0.8-5.5c0.5-1.2,1-2.5,1.5-3.8c-0.8-1.4-1.5-2.7-2.4-4c-0.6-1-1.1-2-1.5-3.2
	c-0.1-0.4-0.2-0.9-0.2-1.4c0.1-1.2,0.2-2.3,0.4-3.5c0.1-0.9,0.7-1.8,1.5-2.2c2.1-1.2,4.1-2.5,6.1-3.8c1-0.8,2.2-1.2,3.5-1.1
	c0.7,0,1.4-0.2,1.9-0.7c0.3-0.2,0.5-0.4,0.7-0.6c1.1-1,2.6-1.6,4.1-1.4c1,0.1,2-0.2,2.7-1c0.7-0.7,1.5-1.3,2.3-2
	c0.3-0.3,0.7-0.6,1.1-0.9l4.8,2.5c2.1,1.3,4.5,2.1,7,2.5c0.7,0.1,1.4,0.3,2,0.6c1.8,0.6,3.5,1.3,5.3,1.9c1.6,0.5,3.2,0.7,4.8,0.7
	c2-0.1,4.1,0,6.1-0.1c3.7-0.1,7.3,0.1,11,0.4c6.6,0.5,13.2,1,19.8,1.4c1.1,0.1,2.2,0,3.3,0.1c0.4,0,0.8,0.1,1.1,0.2
	c0.2,0.1,0.5,0.3,0.7,0.5l-5.6,13.4c2.2,6.9,1.9,13.8,0.4,20.6c-1,4.7-2.5,9.3-3.8,14c-0.6,2.1-1.1,4.2-1.6,6.3
	c-0.2,0.6-0.4,1.2-0.8,1.7c-4.5,6.5-9.1,13.1-13.6,19.6c-0.5,0.8-1,1.6-1.6,2.3c-0.6,0.7-0.8,1.8-0.3,2.6c2.3,5.1,5.4,9.3,11.3,10.5
	c0.4,0.1,0.9,0.2,1.1,0c0.8-0.8,1.6-0.3,2.4-0.1c0.4,0.1,0.8,0.4,1.3,0.6c-0.1,0.2-0.2,0.4-0.4,0.6c-0.5,0.5-1,1.1-0.7,1.9
	c0.2,0.8,0.8,1.5,1.6,1.9c0.6,0.3,1.4,0.3,1.9,1c-0.8,0.4-1.6,0.5-2.5,0.4c-1.4-0.1-2.8,0.1-4.1,0.5c-0.8,0.2-1.7,0.3-2.5,0.1
	c-5.3-0.8-10.6-1.6-16-2.4c-0.6-0.1-1.2-0.2-1.8-0.6c-1.1-0.9-2.7-0.9-3.9-0.1c-0.2,0.1-0.4,0.2-0.7,0.3c-0.2,0-0.4-0.1-0.7-0.2
	c-0.9-0.5-2-0.4-2.9,0.1c-1.4,0.9-3.2,1-4.7,0.5c-1-0.3-1.9-0.4-3-0.6c-0.3-0.7-0.1-1.5,0.4-2c0.7-0.8,1.3-1.6,1.9-2.4
	c0.7-0.8,1.3-1.8,1.6-2.8c0.3-0.6,0.6-1.2,1.1-1.8c0.5-0.7,1.1-1.4,1.6-2c0.6-0.6,0.8-1.5,0.5-2.3c-1.4-0.1-2.7-0.2-4.1-0.2
	c-1.3-0.1-2.6-0.3-4-0.4s-2.8-0.3-4.2-0.5s-2.6-0.7-4-0.3c-0.2,0.2-0.3,0.3-0.4,0.5c-0.8,1.4-2.2,2.4-3.8,2.8
	c-2.9,0.8-5.6,1.9-8.1,3.5c-0.4,0.2-0.8,0.5-1.1,0.8c-0.9,1.2-2.2,1.4-3.7,1.1l-2-2.7c-2.1,0-4.2,0-6.3,0c-0.4,0-0.8,0.1-1.1,0.3
	c-0.5,0.2-1,0.4-1.5,0.6c-1.9,1-4.1,1.5-6.3,1.4C185.4,490.9,185.1,490.9,184.9,491L184.9,491z"/>
<path class="st0" d="M166.3,195.4c0.2-0.3,0.4-0.7,0.7-1c2.4-2.6,4.7-5.2,7.1-7.7c1.3-1.3,2.8-2.5,4.2-3.7
	c5.3-4.5,11.1-8.3,16.8-12.3c0.8-0.5,1.6-1,2.3-1.6c0.4-0.3,0.8-0.7,1.4-1.3c-0.6-0.1-0.9-0.2-1.1-0.1c-0.7,0.2-1.3,0.5-1.9,0.8
	c-4.9,2.5-9.7,4.9-14.6,7.4c-2.5,1.3-4.9,2.7-7.4,4.1c-3.6,2-7.5,3.6-11.4,4.7c-0.6,0.2-1.2,0.3-1.8,0.3c-2.4,0.2-4.8,1-6.9,2.1
	c-1.3,0.8-2.9,1.2-4.4,1.1c-1.3,0-2.5,0.2-3.7,0.4c0.2-0.4,0.5-0.8,0.8-1.1c1.5-1.3,3-2.4,4.6-3.5c4-2.6,8.1-5,12.1-7.5
	c1.3-0.8,2.6-1.5,3.8-2.4c4.3-2.9,8.9-5.5,13.6-7.7c2.1-1,4.3-1.7,6.5-2.6c1.6-0.7,3.2-1.3,4.7-2c0.7-0.2,1.2-0.7,1.4-1.4
	c-0.2-0.1-0.5-0.2-0.8-0.3c-0.5,0-1.1,0.1-1.6,0.3c-8.8,2.7-17.5,5.6-26.1,9c-2.3,0.8-4.4,2-6.4,3.4c-1.2,0.8-2.4,1.4-3.7,1.9
	c-1.2,0.6-2.6,0.6-3.8-0.1c-2.3-1.3-4.6-1.2-7-0.8c-0.2,0-0.5,0-1,0.1c0.6-0.4,0.9-0.7,1.3-0.9c6.3-3.4,12.9-6,19.3-9
	c7.4-3.4,15.1-6.3,22.6-9.5c4.3-1.8,8.4-4.1,12.6-6.2c0.7-0.2,1.2-0.8,1.4-1.5c-0.8-0.2-1.3,0.3-1.8,0.6c-4,2.2-8.2,4.2-12.4,6
	c-1,0.4-2,0.8-3,1.2c-2.2,0.8-4.5,1.2-6.9,1c-2.2-0.2-4.4-0.4-6.5-0.4c-3.3-0.1-6.6-0.1-9.8-0.1c-3.2,0.2-6.4-0.4-9.3-1.7
	c-1.3-0.6-2.7-1.1-4.4-1.7c2.3-0.6,4.6-1,7-1c3.2,0,6.4,0,9.6,0c3,0,6-0.4,9-1c2-0.4,4-0.7,6.2-1c-1.4-0.6-2.8-0.9-4.3-1.1
	c-1.4-0.4-2.9-0.7-4.3-0.9s-3.1-0.5-4.6-0.7s-2.9-0.4-4.4-0.5s-3-0.3-4.4-0.4s-2.9-0.1-4.4-0.2c0-0.2,0-0.4,0-0.6
	c0.1-1.5,0-1.7-1.4-1.5c-3.7,0.6-7.5,0-10.9-1.6c-1.8-0.9-3.6-1.6-5.3-2.5c-0.7-0.2-1.2-0.6-1.6-1.2c0.3,0,0.7-0.1,1-0.1
	c1.2,0.1,2.5,0.1,3.7,0.3c2.1,0.3,4.3,0.7,6.4,1.2c3.2,0.7,6.6,0.6,9.7-0.3c1.2-0.3,2.4-0.6,3.7-0.7c1-0.1,2-0.1,3,0
	c1.7,0.1,3.4,0.3,5.1,0.3c4.1,0.1,8.3-0.1,12.4-0.4c1.3-0.1,2.6,0.1,4,0.1c0.4,0,0.9-0.1,1.3-0.1c0.1-0.4-0.1-0.8-0.5-0.9
	c-0.1,0-0.1,0-0.2,0c-1.7-0.3-3.4-0.6-5.1-0.9c-4.5-0.7-8.9-1.4-13.4-2.2c-6-1.2-11.9-2.7-17.6-4.6c-2.6-0.8-5.2-1.7-7.7-2.6
	c-1.7-0.7-3.3-1.8-4.4-3.3c-0.4-0.4-0.7-0.8-1-1.3c-1-1.8-2.7-3.1-4.7-3.4c-0.1,0-0.2-0.2-0.3-0.4c0.2-0.6,0.7-0.4,1.1-0.4
	c2.3,0.3,4.6,0.7,6.9,1.1c6,1,12,2,18,2.8c3.2,0.5,6.5,0.8,9.8,1.1c5.2,0.6,10.4,1.1,15.6,1.6c4.3,0.4,8.5,0.9,12.8,1.2
	c1.2,0,2.2,0.6,2.9,1.5c2.6,3.2,5.5,6.2,8.8,8.7c1.1,0.8,2.2,1.5,3.4,2c3.8,1.8,7.6,3.6,11.5,5.3c2.6,1,5.3,1.9,8,2.6
	c2.4,0.7,4.7,1.6,6.8,2.7c0.2,0.6-0.3,0.8-0.5,1c-2.4,2.1-4.9,4.2-7.2,6.3c-2.6,2.4-4.9,5.1-6.9,7.9c-0.6,0.8-1.1,1.7-1.4,2.7
	c-0.1,0.4,0.1,0.9,0.5,1c0.2,0.1,0.4,0.1,0.5,0c0.6-0.2,1.1-0.5,1.7-0.8c1.9-1.2,3.7-2.5,5.4-4c1.9-1.7,4.3-2.7,6.5-4.1
	c0.3,0.8-0.1,1.1-0.4,1.4c-2,2.4-4.1,4.7-6.1,7.1c-0.9,1-1.6,2.1-2.4,3.2s-0.9,2.2,0.4,3.1c-1,1.3-2,2.5-3,3.7
	c-2.8,3.4-5.7,6.9-8.5,10.3c-0.8,1-1.5,2-2.3,3c-1.6,2.1-3.3,4.1-5,6.2c-0.9,1.1-1.9,2.1-2.6,3.3c-2.5,3.8-5.1,7.5-7.4,11.4
	c-1.4,2.8-3.3,5.2-5.6,7.4c-1.5,1.4-3,3-4.3,4.6c-0.3,0.3-0.7,0.6-1,1c-0.1-0.2-0.2-0.4-0.1-0.5c1-3,2.3-5.8,3.9-8.5
	c4.1-6.5,7.9-13.2,11.4-20.2c1.9-3.9,4.3-7.4,7.2-10.6c4.4-4.8,8.8-9.5,13.1-14.3c0.3-0.3,0.5-0.6,0.7-0.9c0.1-0.1,0-0.4-0.1-0.8
	c-0.4,0.2-0.8,0.4-1.2,0.7c-1.5,1.4-2.9,2.8-4.4,4.2c-1.9,1.8-3.9,3.6-5.9,5.3c-0.4,0.4-0.9,0.8-1.5,1.1c-2.6,1.4-4.3,3.6-6.2,5.7
	c-2.6,3.1-5.2,6.2-7.8,9.3c-0.9,1.1-1.8,2.1-2.8,3.1c-4.4,4.6-8.7,9.2-13.5,13.3c-2.5,2.2-5.2,4-8.1,5.5c-0.5,0.2-1,0.4-1.5,0.6
	c-0.5-0.4-0.2-0.7-0.1-1.1c1-2,1.8-4,2.9-5.8c4.6-7.6,9.7-14.9,15.2-21.9c1.9-2.4,4-4.6,6.1-6.8c2.5-3,5.2-5.8,8-8.5
	c2.4-2.1,4.8-4.3,7.2-6.4c3.3-2.7,6.4-5.7,9.4-8.8c0.4-0.5,0.8-1,1.1-1.5c0.1-0.1,0-0.3,0-0.4c-0.2,0-0.5-0.1-0.6,0.1
	c-2.2,2.2-4.4,4.4-6.6,6.6c-0.3,0.3-0.6,0.6-1,0.9c-4.1,3.1-8,6.5-11.7,10c-3.7,3.3-7.2,7-11.2,10c-1.2,0.9-2.4,1.8-3.6,2.6
	c-3.2,2.1-6.4,4.1-9.7,6.1c-1.5,0.9-3,1.6-4.6,2.4C167.2,195.4,166.8,195.5,166.3,195.4z"/>
<path class="st0" d="M122.4,43.6c0.3-0.7,0.8-1,1.3-0.5c1,0.8,2,1.7,3,2.6c3.9,3.5,7.8,7,11.7,10.5c1.2,1,2.4,2,3.6,3
	c8.3,6.5,16.6,13,24.9,19.4c1.8,1.4,3.5,2.9,5.3,4.3c3.3,2.6,6.7,5.1,10,7.7c4.2,3.2,8.4,6.4,12.7,9.6c3.7,2.8,7.4,5.7,11.1,8.6
	c0.9,0.6,1.6,1.5,2.1,2.4c0.6,1.1,1.2,2.2,1.8,3.3c0.6,1.1,1.4,2.1,2.3,2.9c2.9,2.5,5.7,5,8.6,7.6c0.3,0.3,0.5,0.5,1.1,1.1
	c-2.4-0.4-4.2-1.3-6.1-1.7s-3.6-1.3-5.8-1.6c0.9,2.9,3.1,4.3,5,6.4c-0.6,0.1-1.3,0-1.9-0.2c-2.8-0.9-5.6-1.9-8.4-2.8
	c-1.4-0.4-2.9-0.7-4.3-0.8c-3.1-0.2-6.2-0.4-9.4-0.4c-4.8-0.1-9.5-0.6-14.2-1.3c-3.7-0.4-7.4-0.8-11.2-1.2c-3.3-0.3-6.5-0.6-9.8-1
	c-0.8-0.1-1.5-0.4-2.2-0.8c-3.1-1.7-6.2-3.3-9.2-5.1c-3.5-2.1-7.3-3.9-11.2-5.3c-1.6-0.5-3.1-1.5-4.1-2.9c-1.1-1.5-2.4-2.9-3.6-4.3
	c-0.6-0.8-1.5-1.4-2.4-1.7c-1.8-0.6-3.5-1.3-5.3-2c-0.9-0.3-1.7-0.7-2.4-1.1c0-0.5,0.2-0.7,0.6-0.7c0.4,0,0.8,0.1,1.1,0.2
	c11,3.3,22,6.4,32.9,10c11.7,3.8,23.5,7.3,35.3,11l14.1,4.4c0.7,0.2,1.3,0.4,2.1,0.6c-0.3-1.1-1.1-1.3-1.9-1.5
	c-2.1-0.7-4.1-1.4-6.2-2.1l-30.3-9.5c-0.7-0.2-1.3-0.5-1.9-0.8c-6.2-3.3-12.4-6.6-18.5-10c-3.8-2-7.3-4.5-10.4-7.5
	c-1.8-1.7-3.3-3.8-4.4-6c-0.7-1.3-1.4-2.6-2.2-3.8c-1.5-2.3-3.1-4.5-4.6-6.8c-0.5-0.8-1.2-1.4-2.1-1.8c-1.1-0.5-2.2-1.2-3.4-1.8
	c0.3-0.4,0.9-0.5,1.3-0.2c2.4,0.8,4.8,2,6.9,3.3c7,4.2,14.1,8.3,21.2,12.4c4.6,2.7,9.2,5.6,13.9,8.2c4.3,2.4,8.6,4.7,12.9,7
	c5.8,3.2,11.3,6.9,16.8,10.6c4.9,3.4,10,6.3,15.4,8.8c1.7,0.9,3.5,1.7,5.3,2.2c-0.2-0.7-0.7-0.9-1.1-1.1c-3.3-1.8-6.6-3.5-9.8-5.4
	c-4.4-2.6-8.6-5.3-13-7.9c-5.1-3.1-10.2-6.3-15.3-9.4c-3.6-2.4-7-5-10.1-8c-1.8-1.5-3.5-3.1-5.2-4.7c-2-1.9-3.9-3.8-5.7-5.9
	c-2.4-2.7-4.9-5.3-7.4-7.8c-1.3-1.4-2.5-3-3.5-4.7c-3.2-5.7-6-11.6-8.4-17.8c-0.5-1.4-1.4-2.6-2.5-3.6
	C125.7,46.7,124,45.1,122.4,43.6z"/>
<path class="st0" d="M287.5,464.4c0.2-0.5,0.4-1,0.6-1.5c1.4-2.6,2.9-5.2,4.3-7.8c0.3-0.5,0.5-1.1,0.7-1.7c0.7-2.2,1.7-4.2,2.9-6.1
	c2.5-3.9,5.1-7.8,7.5-11.9s5.2-7.8,8-11.5c4.3-6,8.4-12,12.6-18c1.7-2.4,3.6-4.7,5.4-7c1-1.4,2-2.8,2.9-4.2c0.4-0.6,0.8-1.3,1.2-2
	c0.6-0.1,1.1-0.1,1.7,0c2.3,0.6,4.2-0.3,6.1-1.8c-0.5-0.3-1.1-0.3-1.6,0.1c-1.2,0.7-2.5,0.9-3.8,0.6c-0.4-0.1-0.8-0.2-1.1-0.3
	c-0.3-0.1-0.6-0.3-0.9-0.5c0.1-0.7,0.1-1.4,0.2-2.1c0.6-3,0.4-6.1-0.6-9c-0.3-1-0.8-1.9-1.4-2.7c-0.5-0.7-1.1-1.4-1.5-2.2
	c1.8-3.3,4.5-6.1,7.8-7.9c1,1.4,2.5,1.4,3.9,1.2c3.1-0.4,6.2-0.2,9.3,0.5c3.2,0.7,6,2.4,8.1,4.9c-0.5,0.8-1.2,1.5-2.1,1.9
	c-1.2,0.7-1.9,1.9-1.9,3.2c0,0.8-0.2,1.5-0.3,2.3c-0.3,3-1.2,6-2.7,8.6c-0.8,1.2-0.6,2.9,0.6,3.8l0.2,0.2c1.7,1.8,3.8,1.6,5.1-0.4
	c1.1-1.8,2.2-3.6,3.3-5.4c0.6-1.1,1.2-2.1,2.5-2.6c0.8-0.2,1.3-1,2-1.6l2.2,2.4c0.2,0.8,0,1.6-0.5,2.2c-0.8,1.4-1.6,2.7-2.5,3.9
	c-2.2,2.8-4.5,5.6-6.7,8.4c-0.4,0.6-0.9,1.1-1.4,1.6c-1.1,0.9-1.8,2.2-2.1,3.6c-0.1,0.9-0.7,1.6-1.5,1.9c-4,1.8-7.4,4.6-10.8,7.4
	c-3.6,2.9-7.3,5.6-10.9,8.5c-2.8,2.3-5.6,4.7-8.4,7.1c-2.9,2.6-5.7,5.3-8.6,7.9c-2.6,2.5-4.9,5.2-6.8,8.3c-0.9,1.4-1.7,2.8-2.5,4.2
	c-1.2,1.7-1.2,4.1,0.2,5.7c1.9,2.6,3.4,5.4,4.5,8.4c0.8,2,1.7,3.9,2.4,5.8c0.4,1,0.6,2.1,0.7,3.2c0.1,1.7,1.2,3.1,2.8,3.6
	c1.5,0.5,3,1.3,4.6,1.8c1.2,0.3,2.1,1.4,2.2,2.7c0,1,0.8,1.9,1.8,2.1c0.2,0.1,0.5,0.1,0.7,0.2c0.7,0.3,1,1,0.9,1.8
	c-0.4,1.4-1.5,2.6-2.9,3.1c-0.4,0-0.8,0-1.1-0.1c-2-0.4-3.9-1.1-5.6-2.1c-0.8-0.6-2-0.7-2.9-0.2c-1,0.6-2.2,0.7-3.4,0.4
	c-2.5-0.4-5-1.4-7.1-2.9c-0.4-0.3-0.7-0.6-0.9-1c-0.9-1.4-1.4-2.9-1.7-4.6c-0.1-1.2-0.7-2.3-1.6-3c-3.5-3.3-6.9-6.5-10.4-9.8
	C288.7,465.5,288.1,465,287.5,464.4z"/>
<path class="st0" d="M240.9,161.6c-0.3,0.1-0.6,0.3-0.9,0.6c-2.1,2.5-4,5.2-5.6,8c-1.4,2.7-2.4,5.6-2.9,8.6c0,0.3,0,0.6,0,0.8
	c0.5,0.3,1.2,0.3,1.6-0.1c1.1-0.8,2.1-1.9,2.9-3c0.4-0.5,0.8-1.1,1.2-1.9c0.5,0.5,0.3,1.1,0.4,1.6c0.1,0.5,0.7,0.9,1.2,0.7
	c0,0,0,0,0,0c0.6-0.3,1.2-0.6,1.8-1.1c0.8-0.7,1.5-1.4,2.2-2.1c1.5-1.6,3-3.2,4.5-4.7c0.1-0.1,0.4-0.2,0.8-0.4
	c-0.8,2.6-1.8,4.8-2.6,7.1c-0.5,1.5-1,3-1.4,4.4c-0.4,1.3-0.1,2.7,0.7,3.8c2.7-1.8,3.9-4.8,6.1-7.2c0.1,0.3,0.1,0.5,0.2,0.8
	c-0.3,1.5-0.6,2.9-0.8,4.4c-0.2,1.2-0.8,2.2-1.7,2.9c-2,1.7-3.9,3.5-6,5.3c-1.7,1.6-3.2,3.3-4.6,5.2c0.6,1.3,0.6,1.3,1.6,1.1
	c1.3-0.3,2.5-0.8,3.7-1.5c0.7-0.4,1.5-0.8,2.3-1.1c0.2,0.6-0.2,0.8-0.4,1.1c-0.2,0.2-0.4,0.5-0.6,0.7c-1.3,1.2-2.3,2.7-3.1,4.4
	c-0.3,0.6-0.8,1.2-1.3,1.6c-0.1,0.1-0.2,0.2-0.4,0.3c-2.7,1.8-5.1,4.2-6.9,6.9c-0.8,1.2-1.8,2.2-3,2.9c-0.9,0.6-1.8,1.3-2.7,1.9
	c-2.8,1.8-5.4,4-7.6,6.5c-2,2-4.1,4.1-6.1,6.2c-0.5,0.5-1,1-1.5,1.5c-3.6,2.6-7.2,5.1-10.9,7.7c-0.5,0.3-1.1,0.5-1.7,0.6
	c0.3-0.6,0.4-0.9,0.6-1.2c2-3.4,4.4-6.5,7.1-9.2c3.2-3.2,6.2-6.6,9.3-9.9c2.3-2.5,4.5-5,6.8-7.5c0.8-0.8,1.5-1.8,2.1-2.9
	c-1-0.1-2,0.3-2.6,1.1c-2.1,2.1-4.2,4.2-6.4,6.2c-0.8,0.8-1.7,1.6-2.6,2.4c-1.7,1.5-3.3,3-4.9,4.6c-2.1,2.1-4.1,4.3-6.2,6.3
	c-2.2,2-4.5,3.8-7.1,5.3c-1.3,0.8-2.6,1.7-4,2.5c-0.3,0.2-0.6,0.6-1.1,0.3c0.6-1,1.2-1.9,1.9-2.9c4.3-5.6,9.2-10.7,14.6-15.2
	c2.6-2.3,5.1-4.6,7.7-6.8c0.8-0.7,1.7-1.3,2.6-2c0.4-0.4,0.8-0.8,1.1-1.2c0.1-0.1,0-0.3-0.1-0.4c-0.1-0.1-0.2-0.2-0.4-0.2
	c-0.4,0-0.7,0.2-1.1,0.4c-2,1.6-4.2,3-6.4,4.3c-1.8,1.3-3.8,2.4-5.9,3.3c-0.7,0.3-1.4,0.7-2,1.2c-0.6,0.3-1.2,0.6-2.1,1
	c0.2-0.7,0.6-1.3,1.1-1.6c5.7-4.6,10.8-9.9,16.2-14.9c2.3-2.1,4.6-4.3,6.9-6.3c1.6-1.5,3.1-3.1,4.5-4.8c0.1-0.2,0.2-0.4,0.2-0.6
	c-0.4-0.4-0.7-0.1-1,0.1c-2.9,2.7-5.8,5.4-8.7,8.2c-6.3,6.1-12.5,12.2-19.2,17.9c-0.9,0.8-1.9,1.6-3,2.3c-0.7,0.5-1.3,1.1-1.8,1.8
	c-1,1.3-2.3,2.4-3.8,3.1c0.1-0.8,0.4-1.6,0.6-2.3c1.4-3.7,3.2-7.1,5.6-10.3c0.5-0.6,0.9-1.3,1.3-1.9c1.9-3.2,4.1-6.2,6.6-9
	c3.8-4.5,7.4-9.1,11-13.7c2.3-2.9,4.4-5.9,6.6-8.8c0.9-1.2,1.9-2.2,3.1-3.1c1.6-1.2,3.1-2.5,4.7-3.8c0.2-0.1,0.3-0.3,0.5-0.5
	c4-3,7-7.1,10.8-10.4c0.5-0.6,1.1-1.1,1.8-1.4c0.5,0.3,0.3,0.6,0.1,0.8c-0.9,1.3-1.9,2.5-2.8,3.7c-0.4,0.5-0.9,0.9-0.9,1.6
	L240.9,161.6z"/>
<path class="st0" d="M201.9,98.8c-1,0.3-1.3,1-1.5,1.8c1.3,1.8,3.9,2.5,4.7,5.1c-0.9-0.2-1.7-0.6-2.4-1.2c-3.8-2.9-7.5-5.8-11.3-8.7
	s-7.8-5.8-11.7-8.6c-6.1-4.4-12-9.2-17.8-14c-1.9-1.7-3.7-3.6-5.4-5.5c-6.6-6.9-13.1-13.8-19.7-20.6c-1.1-1.2-2-2.6-2.5-4.1
	c-0.2-0.5-0.4-1-0.5-1.5c-0.9-4.2-2.6-8.2-3.7-12.3c-0.5-2-1.5-3.8-3-5.1c-1-0.9-1.9-1.8-2.8-2.8c-0.4-0.4-0.7-0.8-1-1.3
	c-0.1-0.3-0.1-0.6,0-0.9c0.1-0.3,0.4-0.4,0.7-0.7c1.2,0.9,2.4,1.9,3.4,3c2.4,2.3,4.6,4.7,6.9,7c3.1,3,6.4,6,9.6,8.9
	c3.7,3.4,7.5,6.8,11.3,10.2c1.1,0.9,2.1,2.1,3.1,3.3s2.1,2.3,3.2,3.4c6,5.7,12,11.3,18.1,17c3.8,3.6,7.6,7.2,11.5,10.7
	c3.2,2.9,6.5,5.8,9.8,8.7c5.9,5,11.8,10,17.6,15c0.1,0.1,0.2,0.2,0.4,0.3c2.9,1.8,4.4,4.7,6.1,7.6c1,1.6,2,3.1,3.2,4.6
	c0.9,1.2,1.8,2.4,2.9,4c-0.7-0.3-1.3-0.7-1.8-1.3c-3.1-2.8-6.1-5.6-9.3-8.3c-2-1.7-4.1-3.3-6.3-4.9c-3.1-2.4-6.3-4.8-9.5-7.2
	C203.4,99.7,202.7,99.2,201.9,98.8z"/>
<path class="st0" d="M363.7,63.8c-0.4,1.1-0.6,1.8-0.9,2.4c-3.4,7.5-6.3,15.1-9.2,22.8c-3.2,8.5-6.4,17.1-9.5,25.6
	c-1.7,5.1-3.2,10.3-4.4,15.5c-0.2,0.7-0.2,1.3,0,2c0.6-0.3,0.6-0.8,0.8-1.2c1-2.6,1.9-5.3,3-7.9c0.9-2.3,2.1-4.5,3.4-6.7
	c2.1-3.4,3.6-7.1,4.5-11c0.1-0.6,0.4-1.2,0.7-1.7c-0.1,4.1-0.4,8.2-0.9,12.3c-0.4,2.3-0.8,4.6-1.3,6.9c-0.3,1.3-0.3,2.7-0.1,4
	c0.3,1.2,0,2.5-0.7,3.5c-0.6,0.9-1,1.9-1.3,3c-1.4,4.6-2.6,9.1-4,13.7c-0.4,1.1-0.4,2.3,0,3.5c-2.8,4.7-5.3,9.6-8.3,14.3
	c0-0.4,0-0.9,0-1.3c0.5-3.8,1.2-7.5,1.6-11.3c0.3-3.3,0.8-6.5,1.5-9.7c0.4-1.4,0.2-2.8-0.6-4c-0.6,0.2-1.1,0.6-1.3,1.3
	c-1.6,3-2.9,6.1-3.8,9.3c-0.6,2.7-1,5.4-1.3,8.1c-0.3,3.2-0.9,6.4-1.6,9.5c-0.2-0.3-0.4-0.6-0.5-1c-0.4-2-0.7-4-1-6
	c-0.1-1.2-0.2-2.5-0.1-3.7c0-1.1-0.2-2.2-0.6-3.2c-0.2-0.5-0.4-1-0.4-1.6c-0.7-7.3-1-14.7-0.9-22c0.1-3,0-6.1,0.1-9.1
	c0.3-7.6,0.9-15.3,2-22.8c0.2-1.5,0.4-2.9,0.6-4.4c0.2-1.5,0.8-2.9,1.6-4.1c2.3-3.2,2.6-3,2.8-8.4c0.1-2.8,0.2-5.6,0.4-8.4
	c0.1-1,0.3-2,0.6-2.9c0-0.2,0.3-0.3,0.6-0.6c0,0.7,0.1,1.1,0.1,1.5c0,3.8,0,7.6-0.1,11.5c0,3.3,0.3,6.7,0.8,10
	c0.2,1.4,0.3,2.8,0.3,4.2c0.1,3,0,6.1,0,9.1c-0.1,4.2,0.2,8.4,0.8,12.6c0.5,3,0.6,6,0.9,9.1c0.4,0,0.5-0.5,0.5-0.8
	c1.2-4.8,2.2-9.7,2.8-14.7c0.6-6.1,1.7-12.2,2.4-18.3c0.7-5.7,3.5-11,7.7-14.9c2.3-2.2,4.5-4.3,6.7-6.5c0.5-0.5,0.9-1.1,1.2-1.7
	c0.6-1.1,1.2-2.2,1.9-3.2C361.9,65.1,362.7,64.3,363.7,63.8z"/>
<path class="st0" d="M203.7,74.5c0.2,0.6,0.5,1.1,0.8,1.7c3.9,5.8,7.9,11.6,11.9,17.4c0.6,0.8,1.1,1.7,1.7,2.6
	c-0.7,0.4-0.8-0.2-1.2-0.4c-0.3-0.2-0.7-0.4-1-0.6c-1.1,3.3-1.5,2.2,1,7.2c-0.6,0.3-0.8-0.2-1.1-0.4c-1.8-1.5-3.6-3-5.3-4.6
	c-7.4-6.6-14.8-13.2-22.2-19.7c-2.6-2.2-4.8-4.9-6.4-8c-3.2-6.3-6.4-12.6-9.6-19c-2.4-4.5-4.6-9.2-6.5-14c-1.4-3.7-2.8-7.4-4.1-11.2
	c-1-2.7-1.4-5.6-1.1-8.5c0.3-2.8-0.3-5.6-0.6-8.4c-0.1-0.5-0.4-1-0.7-1.5c-0.7-1.2-1.4-2.4-2.2-3.6c-0.6-0.7-0.6-1.7-0.1-2.5
	c0.6-0.1,0.8,0.4,1,0.8c2.1,3.1,4.1,6.3,6.1,9.4c3.6,5.5,7.2,10.9,10.8,16.4c1,1.5,1.9,3,2.8,4.6c3.3,5.9,6.4,11.8,9.7,17.6
	c2,3.4,4.2,6.8,6.4,10.1c3,4.6,6.1,9.2,9.3,13.8c0.3,0.3,0.6,0.6,1,0.9L203.7,74.5z"/>
<path class="st0" d="M310.2,224.8l-2.5,0.6c0.1-0.3,0.3-0.6,0.5-0.9c1.6-1.5,3.2-2.9,4.9-4.4c1.2-1,2.4-2,3.6-3
	c0.3-0.2,0.6-0.5,0.8-0.9c0.1-0.2,0.1-0.4,0-0.6c-0.1-0.1-0.2-0.2-0.4-0.2c-0.4,0.1-0.8,0.2-1.1,0.3c-0.9,0.4-1.9,0.8-2.8,1.2
	c-1.8,0.9-3.7,1.4-5.6,1.6c0.4-0.5,0.9-0.9,1.4-1.3c2.1-1.3,4.2-2.6,6.3-4c0.9-0.5,1.7-1.1,2.5-1.7c0.2-0.2,0.1-0.6,0.3-1.2
	c-3,0.5-5.6,1.4-8.3,2.2c2-2.5,5-3.6,7.2-5.7c1.5,0.9,1.9,2.4,3,3.4c0.4-0.4,0.1-0.7-0.1-1c-1.6-2.3-2.9-4.8-4-7.4
	c-0.7-1.7-1.1-3.6-1.1-5.5c0.1-3.6-0.4-7.2-1.4-10.6c-0.8-2.4-0.8-3.3-0.4-6.4c0.4-0.1,0.6,0.1,0.7,0.4c1,1.9,1.8,4,2.2,6.1
	c0.1,0.8,0.3,1.7,0.6,2.5c1,3,1.5,6.2,2.8,9.1c0.3,0.8,0.7,1.5,1.2,2.3c0.2,0.3,0.6,0.3,1,0.6c0.2-1.6,0-3.2-0.4-4.8
	c-0.7-4.3-1.5-8.6-2.1-12.9c-0.3-2.6-0.3-5.3-0.4-7.9c-0.1-1.7,0-3.4-0.1-5.1c-0.2-2.2,0.7-4.1,1.4-6c0.7,0,0.7,0.5,0.7,0.8
	c0.6,4.8,1.5,9.6,2.8,14.2c0.9,3.6,1.3,7.2,1.1,10.9c0,0.6,0,1.3,0,1.9c0,0.1,0.1,0.3,0.3,0.5c0.3-0.2,0.6-0.3,0.7-0.5
	c0.1-0.4,0.2-0.9,0.2-1.4c0.1-4.3-0.4-8.6-1.3-12.8c-0.3-1.2-0.4-2.5-0.4-3.7c0.2-4.9,0.3-9.8,0.5-14.7c0-1.6,0.1-3.3,0.1-4.9
	c-0.1-0.9,0.2-1.8,0.7-2.6c1.1,0.6,1.8,1.6,2,2.8c0.2,0.8,0.2,1.7,0.3,2.6c0.4,3.6,0.8,7.1,1.1,10.7c0.4,3.9,0,7.8-0.1,11.7
	c0,1.6-0.1,3.3-0.1,4.9c-0.1,0.9,0.1,1.8,0.7,2.6c0.7-0.3,0.6-0.8,0.6-1.2c0-2.4,0-4.8,0-7.3c0-1.2,0-2.3,0-3.5c0-3,0.4-6.1,1.2-9
	c0.8-2.9,1.3-5.8,1.5-8.7c0.1-1.6,0.3-3.3,0.6-4.9c0.4-1.9,0.9-3.8,1.6-5.6c0.6-1.8,1.4-3.5,2.2-5.2c0.1-0.2,0.3-0.5,0.4-0.7
	c0.4,1.5,0.5,1.6,0.3,2.6c-1.2,5.7-1.6,11.4-2.3,17.1c-0.4,3.9-1.1,7.7-1.9,11.5c-0.9,3.6-1.2,7.2-1.1,10.9c0,0.5,0,1,0.7,1
	c0.2-0.8,0.3-1.7,0.3-2.5c0.3-2.6,0.5-5.1,0.8-7.7c0.3-1.9,0.8-3.7,1.6-5.4c2.4-5.3,5.1-10.5,8.2-15.5c0.2-0.3,0.4-0.5,0.6-0.8
	c0.3,0.5,0.1,0.8,0,1.1c-2.7,6.9-5.4,13.8-8.1,20.7c-0.2,0.4-0.3,0.7-0.4,1.1c0,0.2,0.1,0.4,0.2,0.6c0.6,0.1,0.8-0.4,1.1-0.7
	s0.8-1.1,1.3-1.3c1.7-0.6,2.9-1.8,4.2-2.8c0.4,0.4,0.1,0.8-0.1,1.1l-8.5,12.1c-3.7,5.2-7,10.7-9.7,16.5c-0.1,0.2,0.1,0.4,0.1,0.8
	c0.9-0.6,1.8-1.2,2.6-2c0.7-0.7,1.5-1.3,2.4-1.7c0.1,0.2,0.2,0.3,0.2,0.3c-1.1,2.9-1.9,5.9-3.8,8.5c-1.3,1.9-2.2,4-2.6,6.2
	c-0.2,1.1-0.5,2.1-0.8,3.2c-0.4,1.7-0.6,3.5-0.7,5.3c-0.2,5.1-0.4,10.3-0.6,15.4c-0.1,1.9-0.5,3.7-0.7,5.6c-0.1,1.3-0.6,2.5-1.5,3.4
	c-0.5,0.4-0.6,1.1-0.5,1.7c0.1,1.3-0.3,2.5-1.2,3.4c-1.4,1.7-2.7,3.4-4,5.1c-0.9,0.9-1.5,2-2,3.1c0,0.1-0.1,0.2-0.1,0.2
	c-0.3,0.1-0.6,0.3-0.8,0.2c-0.3-0.1-0.4-0.4-0.5-0.6c0.1-1,0.4-2,1-2.8c0.8-1.2,1.6-2.5,2.6-3.6c2-2.4,3-5.4,2.8-8.4
	c-0.1-1.7,0.2-3.4,0.9-5c0.7-1.6,1.3-3.2,1.8-4.8c0.3-0.9,0.6-1.8,0-2.7c-0.5-0.2-1.1,0-1.3,0.5c0,0,0,0,0,0
	c-1.3,2.8-2.6,5.5-3.9,8.3s-2.6,5.8-4,8.7c-0.3,0.5-0.6,1.1-1,1.6c0-0.5,0-1.1,0-1.6c0.2-2,0.9-4,2-5.7c0.4-0.6,0.7-1.2,0.9-1.9
	c0.1-0.2-0.1-0.5-0.2-1.1c-2.3,2.6-4.9,5-7.7,7.2c0.2-1.8,0.8-3.6,1.8-5.1c0.8-1.3,1.8-2.6,2.8-3.7c1.9-2.2,3.9-4.2,5.9-6.4
	c1.2-1.3,2.3-2.5,3.5-3.8c0.2-0.2,0.5-0.4,0.6-0.7c0.6-0.7,0.7-1.4,0.3-1.7c-0.6-0.5-1,0-1.5,0.2c-1.8,0.8-3.5,1.8-5,3l-2.4,1.7
	c-0.6-0.4-0.2-0.6,0-0.8c1.6-1.7,3.2-3.4,4.8-5.1c1-1,1.9-2.1,2.8-3.1c0.3-0.3,0.4-0.9,0-1.2c0,0,0,0,0,0c-0.1,0-0.2-0.1-0.3,0
	c-1.7,0.9-3.3,2-4.7,3.3l0.1-0.1C311.6,223.5,310.7,224.1,310.2,224.8L310.2,224.8z"/>
<path class="st0" d="M382.3,395c-1.9,2.3-3.9,4.7-5.9,7.1c-1,1.2-2.1,2.3-3.1,3.5c-1.5,0.2-3.1,0.4-4.6,0.6
	c-0.6,0.1-1.2,0.3-1.8,0.5c-1,0.3-2,0.8-3.1,1.1c-1.4,0.5-3,0.3-4.2-0.7c-0.8-0.5-1.6-0.8-2.5-1c-0.2-1.1,0.2-2.1,1-2.8
	c3.9-3.6,6.9-8,10.1-12.3c0.7-1,1.2-2,1.7-3.1c0.7-1.1,0.5-2.6-0.5-3.4c-1.5-1.2-2.2-3.1-2.1-5c0-0.3,0-0.6-0.1-0.9
	c-0.2-0.5-0.6-0.7-1.2-0.4c-0.4,0.8-0.1,1.6,0,2.4c0.2,0.9-0.2,1.7-1,2.1c-0.1,0-0.1,0.1-0.2,0.1c-2.3,1-3.5,2.9-4.6,5.1
	c-0.7,1.6-1.7,3.2-2.9,4.5c-0.9,1-1.6,1-2.6,0.1c-0.4-0.4-0.7-0.8-1-1.3c0.5-1.2,0.9-2.4,1.5-3.5c1.3-2.7,2-5.6,2.2-8.5
	c0.1-1.1,0.6-2.1,1.5-2.7c1.6-1.2,3.2-2.5,4.8-3.8c0.2-0.2,0.3-0.4,0.4-0.6l-0.7-0.6l-2.3,1.4c-0.3-0.2-0.7-0.5-1-0.8
	c-0.7-0.6-1.4-1.3-2-1.9c-1.3-1.2-2.9-2.1-4.7-2.5c-1.4-0.4-2.9-0.7-4.3-1c-1.9-0.5-3.9-0.5-5.8-0.1c-0.6,0.1-1.2,0.2-1.9,0.2
	c-0.5-0.1-1-0.3-1.4-0.6c2.8-2.4,5.6-4.2,8.3-6.4c2.7-2.1,5.2-4.3,7.5-6.8c0.7,0.4,1.3,0.8,1.9,1.1c2.9,2,5.8,4,8.6,6
	c2.5,1.8,4.8,4,6.6,6.6c2,2.9,4.2,5.6,6.7,8.1c1.9,2.1,3.2,4.7,3.7,7.5c0.4,1.8,0.5,3.7,0.8,5.5c0.2,0.5,0.1,1.1-0.2,1.6
	C382.2,391,382.1,392.9,382.3,395z"/>
<path class="st0" d="M312.5,223.5l2.7-0.6c-0.8,0.8-1.2,1.2-1.6,1.6c-1.5,1.5-3,2.9-4.5,4.4c-0.5,0.5-0.9,1.1-1.2,1.7
	c-0.2,0.3-0.4,0.8,0,1c0.3,0.2,0.7,0.2,1.1,0.2c0.4-0.2,0.9-0.4,1.2-0.7c1.7-1,3.3-2,5-3c0.5-0.3,1.1-0.6,1.6-0.9
	c0.2,0.6-0.2,0.8-0.4,1c-2.3,2.6-4.5,5.2-6.8,7.7c-0.8,0.9-1.7,1.8-2.6,2.7c-2.3,2.5-3.8,5.6-4.4,8.9c0,0.2,0,0.5,0,0.7
	c0,0.1,0.1,0.3,0.3,0.5c1.3-0.4,2.1-1.4,3.1-2.2s2-1.8,3.2-3c-0.8,3-2.2,5.5-0.9,8.4c0.8-0.3,1.4-0.9,1.6-1.8c1-2.1,1.9-4.1,2.8-6.2
	c1.3-3,2.7-6,4-9c0.4-0.8,0.8-1.5,1.2-2.2c0.2,0.1,0.3,0.2,0.3,0.2c-0.2,0.5-0.4,1-0.6,1.5c-0.5,1.4-1.1,2.7-1.7,4.1
	c-0.6,1.5-0.8,3-0.8,4.6c0.1,2.6-0.7,5.1-2.2,7.3c-1,1.4-1.9,2.9-2.8,4.3c-1,1.2-1.7,2.7-1.8,4.3c-0.9,0.2-1.9,0.5-2.9,0.7
	c-0.6,0.1-1.2,0.2-1.9,0.3c-2.6-3.8-6.4-6.6-10.9-7.9c0.4-0.5,0.8-0.9,1.3-1.3c1.5-1,2.2-2.7,2-4.5c-0.2-2.5-0.4-5-0.6-7.4
	c-0.1-0.8-0.2-1.6-0.3-2.3c-0.3-1.5,0.1-3,1-4.2c0.1-0.2,0.3-0.4,0.3-0.6c0.9-2.8,2.9-5,4.7-7.2c0.7-0.9,1.3-1.7,2-2.6
	c0.2-0.4,0.4-0.8,0.5-1.2c-2.5,0.1-4.2,1.5-6.1,3.1c0-0.3,0.1-0.6,0.2-0.9c0.9-1.4,1.7-2.8,2.7-4.1c1.6-2.3,3.5-4.4,5.7-6.2
	c0.4-0.2,0.6-0.7,0.5-1.2c-0.1-0.4-0.8-0.7-1.4-0.5c-1.2,0.3-2.4,0.7-3.6,1c-0.5,0.2-1,0.2-1.5,0.1c0.2-0.2,0.5-0.5,0.7-0.7
	c1.1-0.6,2-1.5,2.8-2.5c1-1.3,2.2-2.4,3.6-3.3c1-0.7,1.8-1.4,2.7-2.2c0.3-0.4,0.5-0.8,0.7-1.3c-1.6-0.4-2.7,0.5-3.8,1
	s-2.4,1.1-3.5,1.6c-0.4-0.7,0-1,0.3-1.4c2.2-2.6,3.3-5.6,4.3-8.8c0.8-2.2,1.1-4.5,1-6.9c-0.1-1.7,0-3.4-0.1-5.1c0-1.7-0.3-3.4-1-5
	c-1.4-3.2-2.7-6.5-4-9.7c-0.3-0.5-0.5-1.1-0.5-1.7c0.2-0.1,0.4-0.2,0.5-0.1c4.7,4.4,9.4,8.9,14.2,13.5c0.4,5.1,1.5,10.3,2.1,16
	c-0.7-1.1-1.2-2.3-1.5-3.6c-1-3.5-1.9-7.1-2.8-10.6c-0.5-1.7-1.6-3.2-3.2-4c-0.2,0.6-0.3,1.1-0.4,1.7c-0.1,1.6-0.1,3.3-0.1,4.9
	c0,0.9,0.1,1.7,0.4,2.5c1.2,3.3,1.8,6.8,1.7,10.3c0,2.8,0.8,5.5,2.1,8c0.1,0.2,0.2,0.4,0.3,0.6c0,0.1,0,0.3,0,0.4
	c-1.3,1.3-2.7,2.5-4.3,3.4c-0.9,0.6-1.8,1.2-2.7,1.9c-0.8,0.6-1.3,1.4-1.6,2.3c-0.1,0.3,0,0.6,0.2,0.8c0.2,0.2,0.5,0.3,0.8,0.2
	c0.4-0.1,0.7-0.3,1.1-0.4c0.9-0.4,1.7-0.8,2.6-1.1c0.5-0.1,1-0.2,1.5-0.3c-0.3,0.4-0.4,0.6-0.5,0.7c-2,1.3-4,2.6-6.1,3.9
	c-0.9,0.4-1.6,1.1-2,1.9c-0.1,0.3-0.1,0.6,0.1,0.8c0.2,0.2,0.5,0.3,0.8,0.2c2.2-1.1,4.6-1.1,7.4-2c-1.4,1.5-3,2.8-4.7,4
	c-1.1,0.9-2,2-2.7,3.2c-0.1,0.4-0.2,0.8-0.3,1.3c1.5,0,2.9-0.6,3.9-1.8l-0.1,0.1c1-0.2,1.9-0.7,2.4-1.5L312.5,223.5z"/>
<path class="st0" d="M203.8,74.6c-0.1-0.4-0.2-0.7-0.3-1.1c-5.4-8.9-10.4-17.9-15.3-27.1c-1.8-3.2-3.2-6.6-4.2-10.1
	c-1.3-4.8-1.7-9.7-1.4-14.6c0.3-1.6,0.3-3.3,0.1-4.9c-0.3-1.5-1.3-2.8-2-4.2c-0.4-0.8-1.1-1.6-0.5-2.7c0.2,0.2,0.5,0.3,0.6,0.5
	c2.7,4.7,5.5,9.4,8,14.2c6.4,12.3,12.7,24.6,19.1,37c4.7,9.1,9.4,18.3,14,27.5c2.7,5.4,5.3,10.9,7.9,16.4c0.2,0.5,0.4,1,0.6,1.5
	c-0.6,0.3-0.8-0.2-1-0.4c-2.3-2.5-4.9-4.8-7.6-6.9c-0.7-0.5-1.3-1.1-1.7-1.8c-3.7-5.6-7.4-11.2-11.2-16.7c-1.4-2.1-2.9-4.1-4.4-6.1
	C204.3,74.9,204.1,74.7,203.8,74.6L203.8,74.6z"/>
<path class="st0" d="M395.8,94.7c-0.3,1.4-1.1,2.6-2.1,3.5c-3.9,4.2-7.9,8.4-11.8,12.7c-3.7,4.1-7.3,8.3-10.6,12.8
	c-2.2,3-4.4,5.9-6.6,8.8c-0.3,0.4-0.6,0.7-0.9,1.1c-3.8,4.1-7.2,8.4-10.4,13c-3.3,4.5-6.6,9.1-10,13.6c-0.3,0.4-0.5,1-1.2,1h0
	c0.1-0.6,0.2-1.2,0.4-1.8c0.9-2.4,1.9-4.8,2.8-7.2c0.5-1.3,0.9-2.6,1.3-4c0.1-0.5,0.1-1.1,0-1.6l-2.1,1.8c-0.1-0.5-0.1-1,0-1.5
	c1.3-4.7,2.7-9.4,4.2-14.1c0.2-0.7,0.6-1.4,1-2.1c2.5-3.5,4.6-7.2,6.9-10.8c3.4-5.2,7.4-10.1,12-14.3c1.2-1.1,2.2-2.4,3.1-3.8
	c1.2-1.7,2.5-3.4,3.8-5c0.3-0.4,0.6-0.7,1-1c0,0.4,0.1,0.6,0,0.8c-3.9,6.3-7.1,13-10.7,19.5c-2.9,5.3-6,10.5-9.1,15.8
	c-1.5,2.7-3.1,5.4-4.5,8.2c-1.3,2.6-2.3,5.3-3,8.1c-0.1,0.3-0.1,0.7,0.1,1c0.3-0.5,0.6-1,0.9-1.5c1.2-2.5,2.4-5.1,3.5-7.7
	c1.5-3.5,3.3-6.9,5.3-10.1c1.9-3.2,3.8-6.4,5.8-9.6c0.7-1.2,1.6-2.3,2.7-3.2c4.2-3.7,8.4-7.4,12.5-11.3c1.2-1.2,2.7-1.9,4.4-1.9
	c1.8-0.1,3.5-0.9,4.6-2.3c1.7-1.9,3.5-3.8,5.2-5.7C394.9,95.3,395.2,94.7,395.8,94.7L395.8,94.7z"/>
<path class="st0" d="M243.1,140l-0.8-0.9l-1.2,0.9c-0.2-0.1-0.4-0.2-0.6-0.3c-3.2-2.7-6.5-5.4-9.7-8.1c-2-1.7-3.9-3.3-5.9-5
	c-2.9-2.6-5.8-5.2-8.7-7.8c-1.4-1.3-2.8-2.5-4.2-3.7c-1.1-0.9-2-2-2.5-3.3c-1.1-2.4-2.3-4.8-3.6-7.1c-0.5-0.8-1.1-1.5-1.9-2
	c-0.8-0.6-1.5-1.1-2.2-1.7c-0.1-0.1,0-0.5,0.1-1c0.3,0.1,0.7,0.3,1,0.5c5.2,4.1,10.5,8.1,15.7,12.2c1.8,1.4,3.4,2.9,5.1,4.4
	c2.3,2,4.5,4.1,6.8,6.1c1.3,1.2,2.8,2.2,4.4,3c0.3,0.1,0.6,0.1,0.9,0.1c-0.4-0.7-0.8-1.2-1.1-1.6c-2.6-3.6-5.3-7.1-7.9-10.8
	c-3-4.3-5.9-8.7-8.8-12.9c-0.7-0.9-1-2.1-0.8-3.2c0.3,0.1,0.7,0.2,1,0.4c1.6,1.2,3.3,2.4,4.8,3.8c1.7,1.5,3.3,3.1,4.9,4.7
	s3.3,3.6,4.9,5.4c0.3,0.3,0.6,0.6,1.1,1c0-0.9-0.2-1.9-0.6-2.7c-1.6-3.9-3.4-7.7-5.4-11.4c-1.7-2.8-2.9-5.9-3.6-9.1
	c-0.3-1.1-0.4-2.3-0.2-3.4c0.7-0.1,0.8,0.4,1,0.8c3.2,4.8,5.9,9.9,8.1,15.3c2.5,5.9,5.1,11.7,7.8,17.5c0.6,1.3,1.1,2.8,1.3,4.2
	c0.3,1.9,0.9,3.6,1.7,5.3c1,2,2,3.9,3,5.8l0.7,1.4c-0.4,0.4-0.6,0.1-0.8-0.2c-0.8-1.2-1.5-2.3-2.2-3.6c-0.8-1.7-1.8-3.3-2.9-4.8
	c-0.5-0.8-1-1.6-1.4-2.4c-0.3-0.3-0.6-0.6-0.9-0.8c-0.2,0.4-0.5,0.7-0.5,0.9c-0.2,1.7-0.1,3.4,0.3,5.1c0.8,3.1,2.5,5.9,4.8,8.2
	c0.2,0.2,0.4,0.5,0.6,0.7c0.1,0.1,0.1,0.2,0.1,0.3L243.1,140L243.1,140z"/>
<path class="st0" d="M323.7,320c0.1-1.3,0.1-2.8,0.2-4.3c0.1-1.1,0.2-2.2,0.2-3.3c-0.1-1.9,0.5-3.7,1.5-5.3
	c2.5-4.6,5.6-8.8,9.1-12.7c0.6-0.6,1.2-1.2,1.9-1.8c1-0.9,2.4-1.1,3.7-0.6c0.2,3.3-1.6,9-4.3,13.3c0.4,1.5,0.8,3,1.1,4.6
	c0.7,3.1,1.3,6.3,1.6,9.5c0.2,1.7,0.1,3.4-0.5,5.1c1.4,3.2,2.5,6.6,3.3,10c0,0.3,0,0.6,0,0.9c-2.5,0.6-2.5,0.6-4.7,2.4
	c-0.8,0.7-1.6,1.4-2.5,1.9c-0.3-1.3-0.4-2.7-0.5-4c-0.1-0.6,0-1.3-0.1-1.9c-0.1-1.3-0.5-2.5-1.3-3.4c-0.5-0.6-1-1.2-1.5-1.8
	c-0.5-0.5-0.9-1.1-1.3-1.7c-1.2-2.7-3.4-4.4-5.4-6.4C324,320.3,323.8,320.2,323.7,320z"/>
<path class="st0" d="M253.7,161.8c0.6-1.1,1.3-2.1,1.9-3.2c0.1-0.2,0.2-0.4,0.2-0.7c0-0.3-0.1-0.8-0.2-0.8c-0.3-0.2-0.7-0.2-1.1,0
	c-1.2,0.9-2.3,1.9-3.4,2.8c-0.6,0.5-1.2,1-1.8,1.4c-0.5-0.4-0.1-0.7,0-0.9c1-1.5,2-3,3-4.4c0.4-0.5,0.7-1,1.1-1.5s0.6-1,0.9-1.7
	c-1.9-0.2-3.7-0.2-5.4-0.6c-2.5-0.3-5-0.8-7.5-1.5c-1.7-0.7-3.1-1.9-3.9-3.5c0.4,0,0.8,0,1.2,0.1c1.5,0.5,3.1,1.1,4.6,1.6
	c0.4,0,0.9,0,1.3-0.1c-0.8-1-1.9-1.1-2.6-1.8s-1.6-1.2-2.4-1.9s-1.5-1.3-2.3-2c-0.8-0.7-1.5-1.4-2.1-2.2c-0.8-0.7-1.3-1.7-1.5-2.7
	c0.5-0.1,1.1-0.1,1.6,0c1.6,0.5,3,1.2,4.4,2.1c2.5,2,5,3.9,7.6,5.8c0.4,0.3,0.8,0.5,1.1,0.8c0.7-0.5,0.2-0.9-0.1-1.1
	c-1.4-1.2-2.9-2.3-4.4-3.4c-0.7-0.5-1.3-1.2-1.5-2.1l0.7-0.5l-0.1,0c1.9,1.7,3.9,3.2,6.1,4.4c0.6-0.4,0.3-0.7,0.1-0.9
	c-0.7-0.9-1.5-1.8-2.3-2.7c-1.3-1.5-2.7-3-4-4.5c-1.1-1.2-1.9-2.7-2.2-4.3c-0.5-1.3-0.7-2.7-0.7-4.1c0.8,0.1,1,0.8,1.3,1.3
	c1.2,1.8,2.2,3.8,3.4,5.6c1.6,2.4,3.4,4.6,5.2,6.9c0.2,0.3,0.6,0.4,1.2,0.2c-0.7-1.6-1.4-3.1-2.3-4.6c-2.4-4-4.2-8.4-5.4-12.9
	c-0.3-1.2-0.4-2.5-0.4-3.7c0.8,0.8,1.3,1.7,1.5,2.8c0.4,0.9,0.7,1.9,1.1,2.8s1,1.8,1.5,2.7s1,1.9,1.5,2.9s0.8,1.8,1.3,2.7
	s1,1.8,1.4,2.7s1,1.7,1.5,2.6c0.6-0.1,0.9-0.4,0.7-0.8c-0.3-0.6-0.6-1.3-1-1.9c-0.6-1-1.2-2-1.8-3c-0.8-1.2-1.3-2.5-1.5-3.9
	c-0.1-0.8-0.3-1.5-0.6-2.2c-0.7-1.9-1.2-3.9-1.4-5.9c-0.1-1.1-0.3-2.3-0.4-3.6c0.7,0.4,1.2,1,1.5,1.7c1.4,2.8,2.8,5.6,4,8.4
	c0.6,1.3,0.9,2.7,1.3,4c0.9,2.7,1.8,5.3,2.8,7.9c0.1,0.2,0.3,0.4,0.5,0.7l0.5-2c0.7-0.1,0.6,0.4,0.6,0.7c0.6,4.2,1.3,8.3,1.9,12.5
	c0.3,1.9,0.7,3.7,0.8,5.6c0.3,3.8,0.5,7.6,0.7,11.4c0.1,2,0.2,4,0.3,6.1c-0.6,0.1-0.8-0.3-0.9-0.7c-0.4-1.4-0.8-2.9-1-4.3
	c-0.4-2.1-0.6-4.2-0.9-6.3c-0.1-0.8-0.3-1.5-0.7-2.2c-0.7,0.4-1.2,1.2-1.2,2c-0.1,1.3-0.5,2.6-1.1,3.8c-0.6-0.1-0.5-0.5-0.5-0.9
	c0-0.8,0.2-1.6,0.3-2.3c0.4-1.3,0.5-2.7,0.2-4.1c-0.6-0.3-0.9,0.1-1.2,0.4S254.5,162.2,253.7,161.8L253.7,161.8z"/>
<path class="st0" d="M372.6,277c1.9,2.3,3.5,4.9,6,6.9c-0.3,0.2-0.6,0.3-1,0.4c-1.6,0-2.5,0.9-3.1,2.4c-0.8,1.7-1.7,3.3-2.7,4.9
	c-0.4,0.7-0.9,1.3-1.3,1.8c-1.2-0.2-2.4-0.1-3.6,0.1c-1,0.5-2,1.2-2.8,2c-1,0.8-2,1.7-2.9,2.7c-0.5,0.5-1.1,0.9-1.7,1.1
	c-1.1,0.3-2.3,0.6-3.4,0.9l-3.9,1c-1.1-0.4-1.9-1.5-2.8-2.4c-2-2-3.7-4.2-5.2-6.5C346.2,290.9,370.5,277.7,372.6,277z"/>
<path class="st0" d="M251,232.9l-0.3,0.2c-0.7,0.4-1.3,0.8-2,1.2c-0.3,0.2-0.6,0.5-1.1,0.1c0-0.8,0.1-1.6,0.4-2.4
	c0.3-0.8,0.7-1.6,1-2.4c0.3-1.1,1-2.1,1.9-2.8c1.8-1.4,2.2-3.4,2.3-5.7c-0.8,0.4-1.4,0.9-1.9,1.6c-0.7,0.7-0.7,0.7-2.1,1
	c0.6-0.7,1.1-1.3,1.5-1.9c0.4-0.6,0.8-1.3,1.1-2c0.1-0.2-0.2-0.6-0.4-1c-1.3,0.9-2.5,1.8-3.8,2.5c-1.3,0.9-2.6,1.7-4,2.4
	c0-1.7,0.3-3.4,1.1-4.9c0.5-1.1,1.2-2,1.2-3.2l-0.1,0.1c0.9-0.9,1.4-2.1,1.4-3.4c-2.6,1.6-4.6,4.1-7.7,5.2c0.4-1.1,1-2.1,1.8-2.9
	c1.5-1.3,3-2.5,4.5-3.7c0.5-0.4,1.1-0.8,1.7-1.2c0.2-0.2,0.5-0.4,0.1-0.7c-2,0.6-3.9,1.6-5.5,2.9c-1.4,0.9-3.1,1.5-4.8,1.5
	c0.3-0.4,0.6-0.8,0.9-1.2c1.6-1.5,3.1-3,4.7-4.5c0.6-0.5,1.1-1.1,1.6-1.7c0.3-0.2,0.4-0.7,0.1-1c0,0-0.1-0.1-0.1-0.1
	c-1.4,0.7-2.9,1.4-4.2,2.2c-1.2,0.8-2.6,1.4-3.5,2.6l0.1-0.1c-1.1,0-2,0.7-3.2,0.4c2.4-4.4,8.6-9.6,12.8-10.8
	c-0.5,1-1.1,1.9-1.8,2.8c-0.3,0.4-0.2,0.9,0.2,1.2c0,0,0.1,0,0.1,0.1c1.5-0.5,2.9-1.3,4.2-2.3c1-0.7,2.2-1.2,3.4-1.5
	c0.3,0,0.5,0,0.8,0c-0.2,0.3-0.5,0.7-0.7,1c-0.9,1-1.8,1.9-2.7,2.9c-1.4,1.5-1.4,1.5-0.7,3.9c0.4-0.1,0.7-0.2,1-0.4
	c1.2-1,2.5-1.7,4-2.1c-0.2,0.7-0.5,1.3-1,1.8c-1.6,2.4-2.8,5-3.5,7.8c-0.3,0.9-0.2,1.9,0.3,2.7c0.8-0.1,1.5-0.6,1.9-1.3
	c0.7-0.9,1.7-1.6,2.8-2c1.1-0.5,2.1-1.2,3.3-1.9c-0.2,1.4-1.6,2-1.7,3.4l0.1-0.1c-1.6,1.3-1.9,3.1-1.5,5c0.1,0.4,0.4,0.7,0.7,1.1
	c1.1-0.5,2-1.6,3.3-1.2c-0.7,1.1-1.4,2.1-2,3.2c-0.3,0.5-0.3,1.1,0.1,1.5c0.5,0.5,1.2,0.6,1.7,0.3c0.7-0.3,1.4-0.6,2.1-0.9
	c0.3-0.1,0.5-0.3,0.9,0c-0.1,0.2-0.2,0.4-0.3,0.6c-1.2,1-2.2,2.2-3,3.5c-0.6,0.7-0.9,1.6-1,2.6c0,1.3-0.5,2.6-1.4,3.6
	c-1.3,1.3-2.6,2.6-4,3.9c-0.9,0.9-1.2,0.9-2.9,1.3c0.6-2.1,1.7-4.1,3.2-5.7c1.1-1.2,2.1-2.5,2.9-4c0.3-0.5,0.2-1.1-0.3-1.5
	c0,0,0,0,0,0l-3.5,3.7C251.4,232.3,251.2,232.6,251,232.9z"/>
<path class="st0" d="M326.5,150.2l-1.5-0.7c-0.8,0.9-1.2,2.1-1.2,3.3c-0.1,1.4-0.1,2.8-0.2,4.2c0,0.5,0.2,1.1-0.4,1.6
	c-0.2-0.2-0.4-0.4-0.5-0.6c-0.5-1-1-1.9-1.5-2.9c-0.9-1.4-1.4-2.9-1.5-4.5c-0.2-1.8-0.6-3.5-1.1-5.3c-0.7-3.2-1.5-6.4-2-9.6
	c-0.6-3.5-0.4-7,0.5-10.4c1.3-5,3.1-9.8,5.1-14.6c0.5-1,0.7-2.1,0.6-3.2c-0.2-2.3-0.3-4.5-0.4-6.8c0-0.4,0-0.9,0.1-1.6
	c0.4,0.4,0.7,0.6,0.8,0.8c0.2,0.5,0.3,1,0.4,1.6c0.6,6.8,1.4,13.7,1.2,20.5c-0.2,5.6,0.5,11.1,1,16.6c0.3,3.5,0.5,7,0.8,10.5
	C326.5,149.5,326.5,149.9,326.5,150.2z"/>
<path class="st0" d="M278.4,358.7c-0.1-0.8,0.1-1.5,0.4-2.2c0.9-2.5,1.4-2.8,4-2.3c1.9,0.4,3.8,0.9,5.7,1.3l20.2,5
	c0.3,0.1,0.6,0.2,1,0.3l3.2,5.6c-0.2,0.1-0.3,0.2-0.5,0.2c-11.2-2.5-22.3-5-33.5-7.5C278.6,359,278.5,358.9,278.4,358.7z"/>
<path class="st0" d="M296.6,489.2c-1-0.7-1.9-1.5-2.6-2.5c-0.9-1-1.8-1.9-2.8-2.8c-2.3-2-4.4-4.2-6.3-6.6c-0.5-0.5-0.7-1.2-0.7-1.9
	c0-1.6,0-3.1,0.2-4.7s1.1-2.7,1.3-4.5c1.3,1.3,2.1,2.3,3.1,3.1s2.2,1.5,3.2,2.4c2.2,2,4.3,4.1,6.4,6.1c0.4,0.3,0.6,0.7,0.8,1.1
	c0.4,2.1,1.1,4.2,2.1,6.1c0.1,0.3,0.2,0.5,0.2,0.8c-0.6,0-1.2-0.2-1.7-0.6c-0.7-0.3-1.4-0.6-2.2-0.8c-0.6-0.1-1.2,0.4-1.2,1
	c0,0.1,0,0.3,0,0.4c0.1,0.7,0.2,1.4,0.3,2.1C296.7,488.4,296.7,488.8,296.6,489.2z"/>
<path class="st0" d="M238.1,218.8c-0.4,0-0.8,0-1.1,0.1c-0.5,0.2-1,0.5-1.4,0.8c-3.2,2.6-6.9,4.2-10.3,6.4c-1,0.6-2,1.3-2.9,1.9
	c-0.4,0.3-0.8,0.5-1.2,0.8c-1.1,0.6-2.2,1.1-3.3,1.6c-0.4-0.5,0-0.9,0.3-1.2c2.6-4.4,5.8-8.5,9.5-12.1c1.8-1.7,3.8-3.2,5.2-5.4
	c0.4-0.6,1-0.7,1.6-0.9c1-0.4,2.1-0.5,2.8-1.5l-0.1,0.1c0.4-0.1,0.9-0.2,1.3-0.4c0.6-0.2,1.3-0.5,1.9-0.7l0.1,0.2
	c-0.9,1-1.9,2-2.8,3c-1,0.9-1.7,2.1-2.1,3.3c1.9,0.2,3.4-0.9,5.3-1.3L238.1,218.8L238.1,218.8z"/>
<path class="st0" d="M319.9,160.1c-0.3,0.5-0.4,0.7-0.5,0.9s-0.3,0.4-0.5,0.7c-1.8-2-3.5-3.8-5.2-5.6c-0.6-0.7-1.2-1.4-1.8-2.1
	c-1.6-1.8-2.2-4.4-1.6-6.8l0.8-3.4c0.4-1.9,0-3.8-1.1-5.4c-0.5-0.9-1.1-1.7-1.6-2.6c-0.1-0.4-0.2-0.8-0.2-1.2c0.4,0.4,0.7,0.8,1,1.2
	c2.6,4.2,5.2,8.5,7.4,13c2,3.8,4,7.6,6,11.3c0.5,0.9,0.8,1.9,0.8,2.9c-0.1,2.6-0.2,5.3-0.4,8.2c-0.5-0.7-0.8-1.5-0.8-2.3
	c-0.5-2.2-1-4.4-1.5-6.6C320.7,161.5,320.4,160.7,319.9,160.1z"/>
<path class="st0" d="M396.6,108.5c-0.9,0.8-1.7,1.4-2.5,2.1c-4.9,4-10,7.7-15.3,11.1c-2.6,1.8-5.2,3.8-7.7,5.7
	c-0.5,0.5-1.2,0.8-1.8,1.1c0.2-0.4,0.4-0.8,0.7-1.1c3.6-4.8,7.2-9.6,11-14.2c1-1.3,2.4-2,4-2c1.8,0,3.6-0.3,5.4-0.3s3.1-0.3,4.1-1.8
	C394.8,108.3,395.5,108.1,396.6,108.5z"/>
<path class="st0" d="M318.8,165.5c-1.3,1.7-1.2,3.4-1.2,5.1c0.1,1.4,0.2,2.8,0.1,4.1c-0.6,0.2-0.7-0.1-0.9-0.4c-2-2.5-4-5-6-7.5
	c-0.4-0.5-0.7-1-1.1-1.5c-1.4-1.7-1.9-4-1.5-6.1c0.2-1-0.1-2-0.8-2.8c-0.4-0.4-0.8-0.9-1.2-1.4c-0.3-0.4-0.5-0.8,0-1.2
	c0.1,0,0.2,0,0.2,0.1c2.8,3.5,6.4,6.1,9.6,9.1C316.9,163.7,317.7,164.5,318.8,165.5z"/>
<path class="st0" d="M235.4,137.1c-2.3-0.4-4.5-1.1-6.7-2.1c-2.8-1.2-5.5-2.5-8.3-3.9c-3.1-1.6-5.8-3.7-8.2-6.2
	c-0.1-0.1-0.1-0.3-0.1-0.4c3.4,0.5,6.7,1.4,9.8,2.7c0.3,0.2,0.7,0.4,1.1,0.5c1.6,0.3,3.1,1.1,4.2,2.3c2.4,2.1,4.9,4.1,7.3,6.2
	C234.9,136.6,235.2,136.8,235.4,137.1z"/>
<path class="st0" d="M354.3,308.8c-0.1-0.2-0.3-0.3-0.5-0.5s-0.3-0.3-0.5-0.6c1.8-0.5,3.6-0.6,5.4-0.3c0.1,0,0.3,0.3,0.4,0.5
	c-0.9,0.4-1.9,0.8-2.9,1.1C355.5,308.9,354.9,308.9,354.3,308.8L354.3,308.8z"/>
<path class="st0" d="M352,312.4c-0.5-0.1-1-0.3-1.5-0.5c-0.3-0.1-0.4-0.4-0.5-0.7c0-0.3,0.2-0.6,0.5-0.7c0.6-0.2,1.3-0.4,2-0.4
	c0.8,0,1.2,0.5,1.2,1.3C353.7,312.1,353.3,312.5,352,312.4z"/>
<path class="st0" d="M395.9,94.7l0.1-0.5l0.2,0.2L395.9,94.7L395.9,94.7z"/>
<path class="st0" d="M184.8,491l-0.9,0.2C184.3,490.8,184.6,491,184.8,491L184.8,491z"/>
<path class="st0" d="M253.8,161.8v0.3c0,0,0.1-0.1,0.1-0.1S253.8,161.9,253.8,161.8L253.8,161.8z"/>
<path class="st0" d="M342.4,161.2c0,0.1,0.1,0.1,0.1,0.2c-0.1,0.1-0.1,0.3-0.2,0.4l-0.2-0.1L342.4,161.2L342.4,161.2z"/>
<path class="st0" d="M272.3,251.6v-0.9C272.6,251.2,272.6,251.2,272.3,251.6L272.3,251.6z"/>
<path class="st0" d="M240.3,208.4c0.4-0.6,1-1,1.7-1.1c-0.3,0.6-0.9,1.1-1.6,1.3L240.3,208.4z"/>
</svg>
